<?xml version="1.0" encoding="UTF-8" standalone="no"?>
<!-- Created with Inkscape (http://www.inkscape.org/) -->

<svg
   version="1.1"
   id="svg1"
   width="880"
   height="880"
   viewBox="0 0 880 880"
   xmlns:xlink="http://www.w3.org/1999/xlink"
   xmlns="http://www.w3.org/2000/svg"
   xmlns:svg="http://www.w3.org/2000/svg">
  <defs
     id="defs1">
    <linearGradient
       id="linearGradient19">
      <stop
         style="stop-color:#2b5f4d;stop-opacity:1;"
         offset="0"
         id="stop20" />
      <stop
         style="stop-color:#3bf4b2;stop-opacity:1;"
         offset="0.98987007"
         id="stop21" />
    </linearGradient>
    <linearGradient
       xlink:href="#linearGradient19"
       id="linearGradient21"
       x1="388.51398"
       y1="932.04407"
       x2="571.47626"
       y2="71.274117"
       gradientUnits="userSpaceOnUse"
       gradientTransform="translate(-39.99506,-61.659069)" />
  </defs>
  <g
     id="g2"
     style="display:none"
     transform="translate(-39.99506,-61.659069)">
    <path
       style="display:inline;fill:#fefefe"
       d="M 0,512 V 0 h 512 512 v 512 512 H 512 0 Z m 825.20355,376 c 2.03696,-1.375 4.62446,-4.13627 5.75,-6.13615 C 832.94658,878.32261 833,876.79243 833,823.2487 833,769.00905 832.9719,768.23402 830.9117,765.61488 826.13691,759.54471 852.13848,760 510.24394,760 H 197.38856 l -3.4225,2.52504 c -1.88237,1.38877 -3.97885,3.52627 -4.65884,4.75 -0.93812,1.68827 -1.2449,15.34997 -1.27178,56.6371 L 188,878.32428 l 2.47312,4.22006 c 1.61229,2.75117 3.96178,4.95784 6.75,6.33969 l 4.27688,2.11964 310,-0.25183 310,-0.25184 z m 0.47321,-144.59195 c 1.55278,-1.15057 3.83574,-3.57962 5.07324,-5.39788 L 833,734.70423 V 553 371.29577 l -2.2826,-3.39789 c -1.44939,-2.15757 -3.78756,-3.92228 -6.40549,-4.83448 -8.70009,-3.03152 -4.77383,-6.49445 -89.23784,78.70719 L 658.01759,519.5 658.0088,424.88646 658,330.27292 l 6.25,-10.17993 c 16.58222,-27.00892 23.4866,-38.07068 24.59917,-39.41125 0.6684,-0.80538 3.12793,-1.75114 5.46563,-2.1017 6.03638,-0.90521 10.36166,-3.88455 13.48239,-9.28696 6.4849,-11.22622 14.33583,-16.21134 22.57196,-14.33257 4.57806,1.04433 10.38948,5.48613 12.99399,9.93161 1.70804,2.91536 1.75813,3.82664 0.60178,10.94716 -2.54478,15.67017 0.23597,19.84289 21.92856,32.90527 8.44378,5.08451 17.20487,9.74339 19.46908,10.35308 8.13814,2.19137 17.3836,-0.95382 24.28811,-8.26252 1.73287,-1.83431 7.06659,-10.08511 11.8527,-18.33511 4.78611,-8.25 11.07279,-19.05 13.9704,-24 20.43596,-34.91083 20.4743,-34.99033 20.50427,-42.51481 C 856.02027,215.38111 850.75064,208.9208 834,199.04117 812.36192,186.2789 809.97258,185.7452 798,191 c -15.29147,6.71147 -27.6568,1.58364 -32.09181,-13.30828 -1.31295,-4.40864 -3.18684,-8.08667 -5.2274,-10.2602 C 758.93136,165.56808 750.3,159.69881 741.5,154.3887 697.93407,128.10009 690.83831,123.93493 682.41728,119.70753 671.67453,114.31461 655.47157,108.75728 645,106.87407 c -10.70323,-1.92488 -36.21841,-1.66304 -47.85152,0.49106 -23.59834,4.36971 -44.2163,13.52383 -60.99679,27.08184 -10.62738,8.58653 -13.2734,15.47381 -9.09302,23.66803 3.4898,6.84058 7.43477,7.96377 25.44133,7.24348 26.96488,-1.07863 46.82937,2.40357 58.13671,10.19124 5.91236,4.07199 10.98869,10.93656 11.97484,16.1932 1.05584,5.62813 -0.21365,14.34994 -3.00299,20.63151 -1.43471,3.23094 -2.60856,7.6914 -2.60856,9.91214 0,4.21676 3.74288,11.91053 6.56168,13.48801 1.26158,0.70601 0.18581,3.19192 -6.26939,14.48751 L 609.5,263.89734 426,264.2238 c -205.29761,0.36525 -186.70132,-0.32426 -203,7.5268 -5.88973,2.83708 -9.43232,5.55974 -16.5,12.68107 -9.69449,9.76809 -13.76222,16.5391 -17.1626,28.56833 -1.75171,6.19686 -1.8374,14.73151 -1.8374,183 v 176.5 l 2.34088,7.5 c 3.62955,11.6288 7.88036,18.73608 16.23773,27.14917 6.21326,6.25467 9.31429,8.47153 17.00995,12.16005 5.57627,2.6727 12.09357,4.95504 15.99335,5.60084 4.45923,0.73843 40.83276,1.08994 112.78519,1.08994 104.69018,0 106.18852,0.0276 105.16808,1.93426 -1.40066,2.61717 -1.28111,8.02145 0.24413,11.03572 0.68741,1.3585 2.77773,3.49964 4.64517,4.75811 l 3.39535,2.28812 178.76684,-0.2581 L 822.85352,745.5 Z M 240,705.56703 C 228.5013,702.36237 217.13344,693.44344 211.77844,683.42514 205.67178,672.00061 206,682.6271 206,496.33912 c 0,-120.85511 0.32189,-171.77794 1.10962,-175.5399 2.59969,-12.41542 12.6331,-25.59711 23.77988,-31.24154 11.69801,-5.92356 -1.17426,-5.55775 195.542,-5.55689 l 180.0685,7.9e-4 6.34511,3.00173 c 8.67615,4.10449 17.81237,13.37391 22.14708,22.46997 2.90781,6.10184 3.42036,8.41376 4.10141,18.5 0.42808,6.3397 0.80714,56.50911 0.84236,111.48759 L 640,539.42174 610.77264,568.71087 581.54529,598 h -51.82231 c -56.08003,0 -55.49197,-0.0539 -59.07448,5.4137 -1.95607,2.98534 -2.26215,14.14537 -0.49437,18.02522 0.63476,1.39317 2.32226,3.32684 3.75,4.29706 2.34699,1.59489 6.23433,1.79237 40.5454,2.05975 l 37.94953,0.29574 -39.44478,39.45426 L 473.50949,707 359.00475,706.91058 C 270.48541,706.84146 243.47878,706.53655 240,705.56703 Z m 46.63345,-67.55338 c 0.6234,-0.008 8.4984,-7.20208 17.5,-15.98793 L 320.5,606.05144 l 15,15.0358 c 8.25,8.2697 15.675,15.45123 16.5,15.95897 2.31188,1.42283 9.77376,1.12214 12.95312,-0.52197 4.5271,-2.34105 7.38614,-7.82197 6.79873,-13.03347 -0.61738,-5.47735 -2.85857,-8.3176 -19.59396,-24.83139 l -13.01293,-12.84062 15.32083,-14.9447 c 8.42645,-8.21958 15.87033,-16.2713 16.54194,-17.89271 1.88699,-4.55561 0.42125,-9.78766 -3.97303,-14.18194 C 363.51798,535.28269 362.80819,535 357.49486,535 h -5.74043 l -15.75706,15.56472 -15.75706,15.56471 -14.78039,-15.06932 c -16.20719,-16.52401 -18.81019,-18.11997 -26.27505,-16.10989 -8.02618,2.16122 -12.72157,12.1783 -9.07737,19.36552 0.60913,1.20134 7.67834,8.80907 15.70935,16.90606 l 14.60185,14.72181 -15.10054,15.29899 c -17.38099,17.60941 -18.90705,20.30843 -15.91396,28.14572 0.93558,2.44978 2.34811,4.99115 3.13895,5.64749 2.31635,1.9224 8.78793,3.96521 10.95685,3.45863 1.1,-0.25692 2.51005,-0.47328 3.13345,-0.48079 z M 576.03273,571.48307 C 579.95858,569.45294 582,565.18244 582,559 c 0,-6.21028 -2.04685,-10.44807 -6.29855,-13.04048 -3.05471,-1.86257 -5.34877,-1.95222 -50.05032,-1.95578 -51.35026,-0.004 -51.45417,0.007 -54.94507,5.91671 -1.95858,3.31561 -2.3325,13.61055 -0.63007,17.34699 2.61008,5.72851 2.1158,5.67697 54.72367,5.70595 41.25307,0.0227 48.72763,-0.1947 51.23307,-1.49032 z M 327.98896,463.50571 C 333.84723,460.47628 334,459.73345 334,434.27749 V 411 h 23.42327 23.42328 l 3.00997,-2.53273 c 1.65549,-1.393 3.54015,-4.13915 4.18813,-6.10257 2.09786,-6.35657 -0.72453,-15.78505 -5.48841,-18.3346 -1.35112,-0.7231 -10.33444,-1.19889 -25.08068,-1.32837 L 334.5,382.5 334,359.5 c -0.53913,-24.79977 -0.85693,-26.34041 -5.97998,-28.98965 -3.75926,-1.94399 -12.28753,-1.94049 -16.05275,0.007 C 306.44845,333.37082 306,335.62034 306,360.45034 V 383 h -24.1 -24.1 l -3.4,3.4 c -3.22675,3.22675 -3.4,3.76099 -3.4,10.48422 0,6.41298 0.27633,7.39367 2.91633,10.35 l 2.91633,3.26578 24.53348,0.29937 24.53348,0.29936 0.30019,23.84774 c 0.27953,22.20665 0.43782,24.00058 2.30019,26.06867 1.1,1.2215 2.9,2.58928 4,3.0395 3.3295,1.36274 12.41485,1.04076 15.48896,-0.54893 z m 256,-54 C 588.73908,407.04933 590,404.32115 590,396.5 c 0,-7.35875 -1.26323,-10.50014 -5.03386,-12.51812 -2.7038,-1.44703 -120.28347,-1.4176 -122.98979,0.0308 -3.65243,1.95472 -5.32937,5.83634 -5.40481,12.51054 -0.0779,6.89515 1.85699,10.81315 6.52486,13.21206 1.8249,0.93785 16.31973,1.23881 60.20326,1.25 49.34368,0.0126 58.22241,-0.20387 60.6893,-1.47955 z M 672.52831,643.75 c 27.34372,-27.76317 60.93424,-62.05853 69.27608,-70.72969 L 749,565.54062 V 614.27031 663 h -47.71543 -47.71542 z"
       id="path6" />
    <path
       style="display:inline;fill:#eb9233"
       d="m 481.00116,727.24008 c -6.4e-4,-0.14296 30.0232,-30.51796 66.71964,-67.5 C 618.28781,588.62386 657.63209,548.71804 685.49451,520 729.85624,474.27599 814.96983,388 815.71607,388 815.87223,388 816,463.12883 816,554.95295 c 0,123.83741 -0.29744,167.60576 -1.15176,169.48078 -0.63346,1.3903 -2.09596,2.82756 -3.25,3.1939 -1.90563,0.60493 -330.59436,0.21962 -330.59708,-0.38755 z m 283.59687,-50.4981 3.44358,-3.75802 -0.2708,-66.4646 c -0.27049,-66.38629 -0.27333,-66.46711 -2.4088,-68.60219 -1.34204,-1.3418 -3.91704,-2.33812 -6.9167,-2.67622 l -4.7787,-0.53863 -64.7956,65.39884 -64.79561,65.39884 -0.0377,4.31574 c -0.0207,2.37366 0.44773,5.22278 1.04104,6.33138 2.55598,4.7759 3.12688,4.81231 71.74848,4.57517 L 761.15445,680.5 Z M 277.74052,637.59536 c -5.16865,-1.8783 -6.37166,-3.06265 -8.33632,-8.20704 -2.99309,-7.83729 -1.46703,-10.53631 15.91396,-28.14572 L 300.4187,585.94361 285.81685,571.2218 c -8.03101,-8.09699 -15.10022,-15.70472 -15.70935,-16.90606 -3.6442,-7.18722 1.05119,-17.2043 9.07737,-19.36552 7.46486,-2.01008 10.06786,-0.41412 26.27505,16.10989 l 14.78039,15.06932 15.75706,-15.56471 L 351.75443,535 h 5.74043 c 5.31333,0 6.02312,0.28269 9.53984,3.79941 4.39428,4.39428 5.86002,9.62633 3.97303,14.18194 -0.67161,1.62141 -8.11549,9.67313 -16.54194,17.89271 l -15.32083,14.9447 13.01293,12.84062 c 16.73539,16.51379 18.97658,19.35404 19.59396,24.83139 0.58741,5.2115 -2.27163,10.69242 -6.79873,13.03347 -3.17936,1.64411 -10.64124,1.9448 -12.95312,0.52197 -0.825,-0.50774 -8.25,-7.68927 -16.5,-15.95897 l -15,-15.0358 -16.36655,15.97428 c -9.0016,8.78585 -16.8766,15.98042 -17.5,15.98793 -0.6234,0.008 -2.03345,0.22387 -3.13345,0.48079 -1.1,0.25692 -3.69176,-0.14766 -5.75948,-0.89908 z M 478,627.35921 c -3.98068,-1.34136 -6.29319,-3.0255 -7.58531,-5.52419 -1.99993,-3.86742 -1.85568,-15.23236 0.23381,-18.42132 3.58477,-5.47105 2.95401,-5.4137 59.53934,-5.4137 h 52.28715 l -14.92926,14.95419 -14.92926,14.95419 -36.55823,-0.0219 C 495.95121,627.87449 478.825,627.6372 478,627.35921 Z m -4.17401,-56.07133 c -1.4707,-0.91239 -3.1582,-2.72159 -3.75,-4.02044 -1.70243,-3.73644 -1.32851,-14.03138 0.63007,-17.34699 3.4909,-5.90962 3.59481,-5.92081 54.94507,-5.91671 44.70155,0.004 46.99561,0.0932 50.05032,1.95578 1.7608,1.07362 3.8983,3.29959 4.75,4.9466 1.97716,3.8234 1.99384,12.3321 0.0316,16.12661 -3.11035,6.01476 -2.68947,5.96986 -55.68341,5.94066 -43.21843,-0.0238 -48.58097,-0.20113 -50.97367,-1.68551 z M 312.5,464.05464 c -1.1,-0.45022 -2.9,-1.818 -4,-3.0395 -1.86237,-2.06809 -2.02066,-3.86202 -2.30019,-26.06867 l -0.30019,-23.84774 -24.53348,-0.29936 -24.53348,-0.29937 -2.91633,-3.26578 c -2.64,-2.95633 -2.91633,-3.93702 -2.91633,-10.35 0,-6.72323 0.17325,-7.25747 3.4,-10.48422 l 3.4,-3.4 h 24.1 24.1 v -22.54966 c 0,-24.83 0.44845,-27.07952 5.96727,-29.93341 3.76522,-1.94707 12.29349,-1.95057 16.05275,-0.007 5.12305,2.64924 5.44085,4.18988 5.97998,28.98965 l 0.5,23 22.97556,0.20173 c 14.74624,0.12948 23.72956,0.60527 25.08068,1.32837 4.76388,2.54955 7.58627,11.97803 5.48841,18.3346 -0.64798,1.96342 -2.53264,4.70957 -4.18813,6.10257 L 380.84655,411 H 357.42327 334 v 23.27749 c 0,25.45596 -0.15277,26.19879 -6.01104,29.22822 -3.07411,1.58969 -12.15946,1.91167 -15.48896,0.54893 z m 150.5964,-54.31938 c -4.66787,-2.39891 -6.60279,-6.31691 -6.52486,-13.21206 0.0754,-6.6742 1.75238,-10.55582 5.40481,-12.51054 2.70632,-1.44838 120.28599,-1.47781 122.98979,-0.0308 3.77063,2.018 5.03386,5.15939 5.03386,12.51814 0,7.82115 -1.26092,10.54933 -6.01104,13.00571 -2.46689,1.27568 -11.34562,1.49213 -60.6893,1.47955 -43.88353,-0.0112 -58.37836,-0.31215 -60.20326,-1.25 z M 648.66431,299.56811 c -3.4408,-6.58523 -12.22075,-15.17195 -20.00596,-19.56565 -5.10974,-2.88376 -5.59525,-3.4258 -4.36533,-4.87354 0.7611,-0.89591 4.21941,-6.80392 7.68512,-13.12892 3.46571,-6.325 6.70928,-12.02124 7.20793,-12.65831 0.64519,-0.8243 5.57924,1.73628 17.11028,8.87955 8.91201,5.52083 16.57776,10.37619 17.03501,10.78967 0.45724,0.41349 -3.09948,7.21769 -7.90383,15.12045 -4.80436,7.90275 -9.61042,15.83114 -10.68014,17.61864 -1.06972,1.7875 -2.23799,3.24893 -2.59617,3.24762 -0.35817,-10e-4 -1.92728,-2.44458 -3.48691,-5.42951 z M 788,300.2817 c -2.64428,-0.98791 -21.41901,-12.55027 -23.75,-14.62637 -3.03949,-2.70712 -2.95309,-8.33433 0.22423,-14.60447 1.36082,-2.68546 7.10959,-12.458 12.77503,-21.71676 5.66544,-9.25875 13.17744,-21.89425 16.69333,-28.07888 10.0817,-17.73423 12.58027,-18.34782 30.05317,-7.38041 6.46793,4.0598 12.07559,8.32233 12.8215,9.74595 2.11916,4.04454 2.99265,2.29198 -26.10623,52.37924 -12.95514,22.29939 -12.67547,21.86168 -15.01556,23.50075 -2.16772,1.51833 -4.9626,1.80196 -7.69547,0.78095 z M 686,254.73056 c -36.28991,-22.90284 -50,-32.11821 -50,-33.60801 0,-0.92265 0.61011,-2.56517 1.35581,-3.65004 1.68061,-2.44505 4.29931,-10.62547 5.12988,-16.02498 0.84303,-5.48052 -1.74133,-17.29317 -5.18724,-23.70996 -4.71254,-8.77544 -13.78837,-16.968 -24.46897,-22.08764 -14.37959,-6.89271 -19.92697,-7.94397 -45.32948,-8.59023 l -22,-0.5597 10.42018,-5.95302 c 11.9535,-6.82899 24.4304,-11.77042 37.48687,-14.84652 7.70253,-1.81471 12.07473,-2.13696 28.59295,-2.10743 18.04211,0.0323 20.24763,0.23822 29.5,2.75487 5.5,1.496 14.95,5.13887 21,8.09525 13.6037,6.64756 67.64214,38.962 72.00266,43.05685 1.80267,1.69283 4.16332,5.61433 5.41781,9 3.94848,10.65634 12.52307,19.29566 22.9585,23.13183 2.54157,0.93431 4.99171,2.01754 5.44477,2.40719 0.45305,0.38965 -4.21893,9.27739 -10.38218,19.75053 l -11.20591,19.04208 -2.11782,-1.98825 c -4.0822,-3.83244 -13.84545,-9.82848 -17.96206,-11.03129 -2.28567,-0.66783 -7.3111,-1.19222 -11.16762,-1.16531 -11.61262,0.0811 -20.01988,4.84694 -28.1978,15.98471 -2.57185,3.50268 -4.7018,6.33088 -4.73322,6.28489 -0.0314,-0.046 -2.98213,-1.92962 -6.55713,-4.18582 z"
       id="path5" />
    <path
       style="display:inline;fill:#71ad8f"
       d="m 207.0404,825 v -47 h 24.39 24.38999 l 0.11163,16.25 c 0.12478,18.16296 0.82535,20.38857 6.97285,22.15165 4.06886,1.16693 9.73145,-1.31491 11.07743,-4.8551 0.51528,-1.35528 0.99648,-9.46651 1.06933,-18.02497 l 0.13246,-15.56082 20.93684,0.26962 20.93684,0.26962 0.22112,19.33749 0.22111,19.33749 2.80576,2.41251 c 3.98974,3.43054 9.94357,3.32555 13.24199,-0.23351 2.41016,-2.60061 2.45428,-2.96535 2.57067,-21.25 0.0651,-10.23219 0.0651,-18.94148 0,-19.35398 -0.0651,-0.4125 9.51617,-0.75 21.29178,-0.75 h 21.41019 l 0.13019,16.12775 c 0.0953,11.81302 0.51255,16.86717 1.55942,18.89158 1.85904,3.595 6.27458,5.15505 10.94264,3.86614 5.68592,-1.56996 6.44694,-4.19535 6.59678,-22.75772 L 398.17961,778 h 21.32608 21.32609 l 0.12154,17.51576 c 0.0668,9.63367 0.39676,18.29617 0.73312,19.25 2.29073,6.49576 11.05432,8.58439 15.85901,3.77969 2.43423,-2.43422 2.45455,-2.61223 2.45455,-21.5 V 778 h 20.9209 20.9209 l 0.11489,19.05396 c 0.0632,10.47967 0.37373,20.34815 0.69009,21.92995 1.4697,7.34847 11.20976,10.20933 15.95935,4.6876 C 520.96248,820.9321 521,820.568 521,800.44424 c 0,-15.68056 0.29126,-20.44781 1.25,-20.45955 0.83333,-0.0102 0.75,-0.33844 -0.25,-0.98469 -0.99394,-0.64234 5.83781,-0.97454 20.25,-0.98469 11.9625,-0.008 21.69671,0.32219 21.63158,0.73469 -0.0651,0.4125 -0.0651,8.25297 0,17.42327 0.11647,16.39882 0.16104,16.72393 2.70731,19.75 2.15558,2.56176 3.31233,3.07673 6.91111,3.07673 3.59878,0 4.75553,-0.51497 6.91111,-3.07673 2.54627,-3.02607 2.59084,-3.35118 2.70731,-19.75 0.0651,-9.1703 0.0651,-17.01077 0,-17.42327 -0.0651,-0.4125 9.51706,-0.75 21.29376,-0.75 h 21.41218 l 0.12744,16.62628 C 626.11355,815.72815 627.04414,818 635.52602,818 c 2.112,0 4.40588,-0.89713 6.16822,-2.41238 L 644.5,813.17525 644.71838,795.83762 644.93676,778.5 h 21.18179 21.18178 l -0.20947,16.67288 c -0.24665,19.63132 0.61173,24.10485 5.06737,26.40894 4.06091,2.09998 9.13636,1.13042 11.79844,-2.25386 C 705.85467,816.91504 706,815.35297 706,797.36514 V 778 h 55 55 v 47 47 H 511.5202 207.0404 Z"
       id="path4" />
    <path
       style="display:inline;fill:#195946"
       d="m 356.75,890.25002 c 84.8375,-0.14099 223.6625,-0.14099 308.5,0 84.8375,0.141 15.425,0.25635 -154.25,0.25635 -169.675,0 -239.0875,-0.11535 -154.25,-0.25635 z M 510,888.89126 c -171.325,-0.33916 -312.26607,-0.77486 -313.20238,-0.96824 -0.93631,-0.19338 -1.49469,-0.55928 -1.24085,-0.81312 0.6229,-0.6229 -3.68658,-5.1477 -4.45213,-4.67457 -0.33255,0.20553 -0.74991,-0.59584 -0.92747,-1.78082 -0.67114,-4.47907 -1.28182,-101.38996 -0.67057,-106.41483 0.41255,-3.39142 1.49217,-6.2732 3.03876,-8.11122 1.31938,-1.56799 2.20785,-3.04192 1.97437,-3.27539 -0.23347,-0.23348 0.56658,-0.58211 1.77789,-0.77475 1.21131,-0.19263 141.47738,-0.51 311.70238,-0.70526 237.54417,-0.27247 310.66245,-0.0773 314.5,0.83971 2.75,0.65709 5.29434,1.11742 5.65409,1.02294 0.35975,-0.0945 1.25975,0.60134 2,1.54626 1.16592,1.48828 1.13902,1.5843 -0.20122,0.71803 -1.21724,-0.78678 -1.20089,-0.67591 0.0767,0.51995 0.8931,0.83597 1.41843,2.13611 1.1674,2.8892 -0.25103,0.75308 -0.0605,1.12457 0.42332,0.82554 0.50218,-0.31037 0.87973,22.76366 0.87973,53.76531 0,29.91659 -0.38497,54.07109 -0.85713,53.77928 -0.47143,-0.29136 -0.53572,0.48297 -0.14287,1.72072 0.48658,1.53308 0.36134,2.03234 -0.39287,1.56621 -1.00684,-0.62226 -1.5652,0.66026 -1.20077,2.75812 0.0788,0.45338 -0.25782,0.57649 -0.74794,0.27358 -1.20725,-0.74612 -4.35729,2.84998 -3.4106,3.89357 0.4137,0.45604 0.23029,0.53056 -0.40758,0.1656 -1.50627,-0.86183 -4.49465,0.28406 -3.77548,1.4477 0.3043,0.49237 0.41422,0.7845 0.24426,0.64917 C 821.63906,889.61862 681.325,889.23041 510,888.89126 Z M 816.5,825 V 777.5 H 761 705.5 v 19.65529 c 0,11.70907 -0.37191,19.42512 -0.91994,19.08596 -0.50915,-0.31511 -0.6259,0.19692 -0.26145,1.14664 0.36216,0.94379 0.26462,1.47257 -0.21676,1.17506 -1.04259,-0.64436 -3.34604,1.85953 -2.49426,2.71131 0.32463,0.32463 -0.24177,0.40167 -1.25868,0.17121 -1.0169,-0.23046 -3.87391,-0.58848 -6.34891,-0.79559 -3.61966,-0.3029 -4.43801,-0.71638 -4.18312,-2.11358 0.17429,-0.95535 -0.0507,-1.50948 -0.5,-1.23139 C 688.8676,817.583 688.5,808.74066 688.5,797.65526 V 777.5 H 666 643.5 v 18.15539 c 0,9.98546 -0.3375,17.9464 -0.75,17.69098 -0.4125,-0.25542 -0.75,-0.0182 -0.75,0.52723 0,0.54539 -0.90653,1.27935 -2.01452,1.63101 -1.10799,0.35166 -1.78648,1.00837 -1.50776,1.45935 0.27872,0.45098 -1.28568,0.41722 -3.47645,-0.075 -2.19077,-0.49223 -4.52932,-0.78111 -5.19679,-0.64196 -1.1598,0.2418 -1.39826,-0.2986 -1.67948,-3.80601 -0.0688,-0.85746 -0.4625,-1.34949 -0.875,-1.09341 -0.4125,0.25609 -0.61389,-6.34267 -0.44754,-14.6639 0.16635,-8.32123 0.0453,-16.1542 -0.26905,-17.40659 L 625.9619,777 H 604.48095 583 l -0.21412,18.25 -0.21411,18.25 L 582,796 l -0.57177,-17.5 -0.21411,17.75 c -0.19292,15.99237 -0.40391,17.93979 -2.13079,19.66667 -1.05416,1.05416 -1.76666,2.06666 -1.58333,2.25 0.18333,0.18333 -1.6112,0.33333 -3.98784,0.33333 -2.37665,0 -4.1622,-0.25723 -3.9679,-0.57162 0.19431,-0.31439 -0.52366,-1.32249 -1.59549,-2.24021 -1.77941,-1.52359 -1.96738,-3.21199 -2.16289,-19.42838 L 565.57177,778.5 565,796 564.42823,813.5 564.21412,795.25 564,777 h -21.39301 c -18.58514,0 -21.47268,0.20761 -22,1.58179 -0.33385,0.86998 -0.61773,9.53248 -0.63085,19.25 -0.0237,17.54718 -0.89871,25.30907 -2.92947,25.98599 -0.58252,0.19417 -0.8743,0.65211 -0.64839,1.01763 0.2259,0.36552 -1.75879,0.66459 -4.41044,0.66459 -2.65164,0 -4.63269,-0.18848 -4.40232,-0.41885 0.60148,-0.60148 -2.73065,-4.10962 -3.46917,-3.65241 C 503.77736,821.63861 503.5,811.8405 503.5,799.65516 V 777.5 h -22 -22 v 19.15532 c 0,11.40478 -0.37222,18.92495 -0.91994,18.58596 -0.50597,-0.31315 -0.63466,0.17405 -0.28599,1.08268 0.39088,1.0186 0.16846,1.56079 -0.58006,1.41404 -0.6677,-0.1309 -1.10691,0.30831 -0.97601,0.97601 0.14675,0.74852 -0.39544,0.97094 -1.41404,0.58006 -0.90863,-0.34867 -1.3962,-0.21998 -1.0835,0.28599 0.31271,0.50597 -1.37597,0.91994 -3.75262,0.91994 -2.37664,0 -4.17117,-0.15 -3.98784,-0.33333 0.18333,-0.18334 -0.52917,-1.19584 -1.58333,-2.25 -1.73555,-1.73555 -1.93698,-3.68848 -2.13163,-20.66667 l -0.21496,-18.75 -0.59233,18 -0.59232,18 0.0573,-18.75115 0.0573,-18.75115 -21.75,10e-4 L 398,777 397.80233,788.75 397.60465,800.5 397,789.5 c -0.59925,-10.90165 -0.60754,-10.84577 -0.92733,6.25 -0.39444,21.08696 -0.23455,19.8164 -2.44546,19.43312 -1.00535,-0.17429 -1.60073,0.0507 -1.32305,0.5 0.27767,0.44928 -1.4342,0.81688 -3.80416,0.81688 -2.36996,0 -4.08183,-0.3676 -3.80416,-0.81688 0.27768,-0.44929 -0.3177,-0.67429 -1.32305,-0.5 -2.20961,0.38305 -2.04759,1.66291 -2.46009,-19.43312 l -0.3373,-17.25 -0.59924,16.5 -0.59924,16.5 0.0615,-17.26975 0.0615,-17.26974 -22,0.26974 -22,0.26975 v 19.65765 c 0,10.8117 -0.33061,19.1367 -0.73469,18.5 -0.48329,-0.76153 -0.7827,-0.55883 -0.875,0.59235 -0.0772,0.9625 -0.20666,2.3125 -0.28775,3 -0.0811,0.6875 -0.97,1.1074 -1.97535,0.93312 -1.00535,-0.17429 -1.56992,0.10057 -1.25459,0.61078 0.95387,1.54339 -7.26384,-0.38548 -9.23246,-2.16705 -0.99135,-0.89717 -1.99094,-1.44224 -2.22131,-1.21127 C 318.68848,817.64654 318.5,808.76003 318.5,797.66776 V 777.5 H 296 273.5 v 17.6674 c 0,11.22321 -0.36475,17.60635 -1,17.5 -0.55,-0.0921 -0.87635,0.42855 -0.72522,1.15693 0.15112,0.72838 -0.0739,1.12226 -0.5,0.87529 -0.42613,-0.24697 -3.13077,-0.13693 -6.01031,0.24453 -2.87954,0.38147 -5.01606,0.47411 -4.74782,0.20587 0.26824,-0.26825 -0.30077,-1.35756 -1.26447,-2.42069 C 257.77879,811.1039 257.42045,808.14749 257,794.14818 L 256.5,777.5 231.75,777.23253 207,776.96506 206.76486,824.73253 206.52972,872.5 206,825.5 l -0.52972,-47 -0.23514,46.58333 c -0.12933,25.62084 0.0656,46.88406 0.43314,47.25162 0.36756,0.36755 137.95506,0.55505 305.75,0.41667 L 816.5,872.5 Z m -305.75,1.33772 c 0.6875,-0.27741 1.8125,-0.27741 2.5,0 0.6875,0.27741 0.125,0.50439 -1.25,0.50439 -1.375,0 -1.9375,-0.22698 -1.25,-0.50439 z m 184.51903,-4.03071 c 0.97297,-0.25354 2.32297,-0.23687 3,0.0371 0.67703,0.27393 -0.11903,0.48137 -1.76903,0.46099 -1.65,-0.0204 -2.20394,-0.2445 -1.23097,-0.49804 z M 502.42179,798 c 0,-11.275 0.14584,-15.8875 0.32409,-10.25 0.17825,5.6375 0.17825,14.8625 0,20.5 -0.17825,5.6375 -0.32409,1.025 -0.32409,-10.25 z m -238.15276,18.30701 c 0.97297,-0.25354 2.32297,-0.23687 3,0.0371 0.67703,0.27393 -0.11903,0.48137 -1.76903,0.46099 -1.65,-0.0204 -2.20394,-0.2445 -1.23097,-0.49804 z M 317.41318,797.5 c 10e-4,-9.9 0.1507,-13.81474 0.33256,-8.69942 0.18186,5.11532 0.181,13.21532 -0.002,18 -0.18291,4.78468 -0.3317,0.59942 -0.33065,-9.30058 z m 369.98931,1.5 c 0,-8.525 0.15337,-12.0125 0.34082,-7.75 0.18745,4.2625 0.18745,11.2375 0,15.5 -0.18745,4.2625 -0.34082,0.775 -0.34082,-7.75 z m -42.9977,-3.5 c 10e-4,-8.8 0.15425,-12.26613 0.33996,-7.70252 0.18572,4.56362 0.18468,11.76362 -0.002,16 -0.18698,4.23639 -0.33893,0.50252 -0.33766,-8.29748 z M 274.40709,794 c 0,-9.075 0.1516,-12.7875 0.3369,-8.25 0.18529,4.5375 0.18529,11.9625 0,16.5 -0.1853,4.5375 -0.3369,0.825 -0.3369,-8.25 z m 412.67186,-12.58333 c 0.048,-1.16495 0.28494,-1.4019 0.60416,-0.60417 0.28887,0.72187 0.25335,1.58438 -0.0789,1.91667 -0.33229,0.33229 -0.56864,-0.25834 -0.52522,-1.3125 z M 553.67079,745.25008 c 48.49394,-0.1435 128.14394,-0.14352 177,-3e-5 48.85607,0.14349 9.17921,0.26091 -88.17079,0.26093 -97.35,10e-6 -137.32314,-0.11739 -88.82921,-0.2609 z M 463.65451,743.75 c 0.25494,-0.4125 -0.013,-0.75 -0.59549,-0.75 -2.00319,0 -2.56211,-0.17263 -3.74958,-1.15815 -0.65481,-0.54344 -0.91583,-1.704 -0.58006,-2.57901 0.43765,-1.14049 0.23551,-1.35918 -0.71395,-0.77238 -0.85115,0.52604 -1.08472,0.43068 -0.65363,-0.26685 0.36895,-0.59698 0.21348,-1.36807 -0.34549,-1.71353 -1.3068,-0.80765 -1.33108,-5.51008 -0.0284,-5.51008 0.54333,0 0.86922,-1.4625 0.72421,-3.25 l -0.26365,-3.25 H 347.76081 c -60.32819,0 -108.93142,-0.26515 -108.00717,-0.58922 1.57294,-0.55152 -3.88491,-1.86048 -9.40815,-2.25636 -1.18498,-0.0849 -1.90211,-0.56281 -1.59363,-1.06194 0.30849,-0.49914 -0.4101,-0.65361 -1.59687,-0.34326 -1.39639,0.36516 -1.92296,0.18436 -1.49232,-0.51242 0.42493,-0.68755 0.0452,-0.83869 -1.05056,-0.41819 -1.15642,0.44376 -1.48251,0.28071 -1,-0.5 0.4825,-0.78072 0.15641,-0.94376 -1,-0.5 -1.15642,0.44376 -1.48251,0.28071 -1,-0.5 0.47711,-0.772 0.16483,-0.94699 -0.93607,-0.52454 -1.0186,0.39088 -1.56079,0.16846 -1.41404,-0.58006 0.1309,-0.6677 -0.54466,-1.15232 -1.50124,-1.07691 -0.95658,0.0754 -1.49252,-0.2621 -1.19098,-0.75 0.50773,-0.82153 -0.95574,-1.31747 -2.89411,-0.98074 -0.45338,0.0788 -0.55328,-0.29538 -0.22199,-0.83141 0.60946,-0.98613 -2.80974,-3.38555 -3.64055,-2.55475 -0.81047,0.81047 -7.28927,-6.56424 -7.30135,-8.311 -0.006,-0.93722 -0.68619,-1.70519 -1.51046,-1.70661 -0.83071,-0.001 -1.49927,-0.894 -1.5,-2.00259 -7.5e-4,-1.13107 -0.5767,-1.88062 -1.32565,-1.72522 -0.72838,0.15112 -1.06041,-0.15227 -0.73783,-0.6742 0.78215,-1.26555 -4.00319,-10.18034 -4.98861,-9.29347 -0.42343,0.38109 -0.47941,0.18416 -0.12438,-0.43763 0.35502,-0.62179 -0.18636,-4.40618 -1.20309,-8.40977 -1.01672,-4.00358 -2.02255,-6.75695 -2.23517,-6.11859 -0.36151,1.08535 -0.21366,-112.46907 0.36391,-279.4958 0.13722,-39.68507 -0.088,-71.94601 -0.5005,-71.69098 -0.4125,0.25503 -0.75,-0.0129 -0.75,-0.59532 0,-0.58246 0.50246,-1.05902 1.11658,-1.05902 -4.78922,-33.97363 37.96221,-51.59422 49.35867,-52.04005 0.58942,-0.0231 78.72609,-0.90365 184.64536,-0.93886 l 185.18756,-0.0616 2.36222,-2.54887 c 1.29922,-1.40188 2.13246,-2.92062 1.85166,-3.37498 -0.28081,-0.45435 0.20854,-1.10205 1.08745,-1.43931 0.94009,-0.36075 1.35415,-1.2487 1.00571,-2.15673 -0.33895,-0.88328 -0.16945,-1.28217 0.39624,-0.93255 0.5437,0.33602 0.98855,0.1344 0.98855,-0.44806 0,-0.58246 0.0116,-1.27331 0.0257,-1.53521 0.0141,-0.26191 1.15534,-1.69512 2.53603,-3.18491 1.38069,-1.48979 2.27429,-3.32387 1.98577,-4.07574 -0.28852,-0.75187 -0.1623,-1.14314 0.28048,-0.86948 1.30986,0.80954 4.06531,-4.76152 3.75468,-7.59133 -0.32535,-2.96381 -3.96273,-8.08893 -5.00275,-7.04892 -0.37708,0.37709 -0.36035,-0.162 0.0372,-1.19796 0.47407,-1.23542 0.3523,-1.65458 -0.35389,-1.21814 -0.69678,0.43064 -0.87758,-0.0959 -0.51242,-1.49232 0.31035,-1.18677 0.15588,-1.90726 -0.34326,-1.60109 -0.49913,0.30616 -0.92917,-1.19053 -0.95563,-3.32598 -0.031,-2.50351 0.2662,-3.4449 0.83675,-2.65029 0.57865,0.80589 0.71408,0.45325 0.39137,-1.01903 -0.31424,-1.43358 -0.10691,-2.01246 0.57077,-1.59363 0.68197,0.42148 0.86158,-0.11733 0.5,-1.5 -0.36516,-1.39639 -0.18436,-1.92296 0.51242,-1.49232 0.68755,0.42493 0.83869,0.0452 0.41819,-1.05056 -0.36295,-0.94584 -0.24713,-1.46176 0.25807,-1.14953 1.23532,0.76347 2.25715,-2.71727 1.48888,-5.0717 -0.44838,-1.3741 -0.35584,-1.52615 0.33859,-0.55635 0.73774,1.0303 1.0981,0.80232 1.58068,-1 0.96111,-3.58952 0.76748,-13.02369 -0.25435,-12.39217 -0.49871,0.30822 -0.65282,-0.41059 -0.34248,-1.59735 0.42037,-1.60751 0.22969,-1.95097 -0.74776,-1.34687 -0.8569,0.52958 -1.07081,0.42057 -0.61666,-0.31426 C 623.05109,188.10831 620.52486,182 619.4153,182 c -0.29333,0 -0.21225,0.51953 0.18019,1.15451 0.44563,0.72104 0.27393,0.88282 -0.45729,0.4309 -0.64395,-0.39798 -0.90885,-1.14749 -0.58866,-1.66557 0.88034,-1.42442 -5.29958,-7.18275 -6.78847,-6.32537 -0.69359,0.3994 -0.92643,0.3569 -0.51743,-0.0944 1.0299,-1.13653 -2.97873,-3.78178 -4.3999,-2.90344 -0.76638,0.47364 -0.87839,0.26851 -0.3342,-0.61201 0.59931,-0.96971 0.35895,-1.14808 -0.89743,-0.66596 -0.94584,0.36295 -1.46176,0.24713 -1.14953,-0.25807 0.73463,-1.18865 -3.08963,-2.40907 -4.60814,-1.47058 -0.77389,0.47829 -0.89194,0.27974 -0.35258,-0.59298 0.6041,-0.97745 0.26064,-1.16813 -1.34687,-0.74776 -1.38267,0.36157 -1.92148,0.18197 -1.5,-0.5 0.42142,-0.68188 -0.11703,-0.86166 -1.49862,-0.50036 -1.186,0.31014 -2.15637,0.0998 -2.15637,-0.46748 0,-0.61638 -1.22712,-0.78596 -3.04971,-0.42144 -2.15168,0.43034 -2.84174,0.27344 -2.34344,-0.53283 0.51366,-0.83112 -0.7682,-0.97034 -4.70029,-0.51048 -3.63011,0.42455 -4.9137,0.31516 -3.90656,-0.33289 0.9822,-0.63201 -6.4933,-0.8821 -21.65546,-0.72447 -13.90479,0.14456 -22.92794,-0.12679 -22.58595,-0.67921 0.31322,-0.50597 -0.17392,-0.63466 -1.08255,-0.28599 -0.90863,0.34868 -1.54495,0.31265 -1.41404,-0.0801 0.37928,-1.13786 -4.01689,-5.11766 -4.83899,-4.38068 -0.40901,0.36667 -0.43275,0.12486 -0.0527,-0.53734 1.04304,-1.81763 -0.41004,-6.84065 -1.48721,-5.14101 -0.5879,0.92763 -0.85719,0.47331 -0.86775,-1.464 -0.008,-1.54496 0.39807,-2.55353 0.90332,-2.24127 0.92247,0.57012 2.7011,-5.0779 2.18854,-6.94971 -0.15061,-0.55 0.009,-0.71731 0.35437,-0.37179 0.73267,0.73266 7.09106,-5.26574 6.76099,-6.37821 -0.12239,-0.4125 0.11497,-0.6544 0.52747,-0.53755 1.59373,0.45146 5.28219,-2.35432 4.61768,-3.51262 -0.37858,-0.65991 -0.33202,-0.87816 0.10348,-0.48501 1.02242,0.923 4.74943,-1.04888 4.06761,-2.15209 -0.28449,-0.46031 0.26541,-0.77523 1.22199,-0.69983 0.96193,0.0758 1.61644,-0.45478 1.46446,-1.18723 -0.15112,-0.72838 0.18559,-1.03981 0.74825,-0.69207 1.27124,0.78567 5.28091,-1.89588 4.30065,-2.87615 -0.39224,-0.39223 0.13445,-0.3879 1.17041,0.01 1.30195,0.4996 1.66248,0.36507 1.16758,-0.4357 -0.48251,-0.78071 -0.15642,-0.94376 1,-0.5 1.15641,0.44376 1.4825,0.28072 1,-0.5 -0.48251,-0.78071 -0.15642,-0.94376 1,-0.5 1.15641,0.44376 1.4825,0.28072 1,-0.5 -0.48251,-0.78071 -0.15642,-0.94376 1,-0.5 1.15641,0.44376 1.4825,0.28072 1,-0.5 -0.48251,-0.78071 -0.15642,-0.94376 1,-0.5 1.15641,0.44376 1.4825,0.28072 1,-0.5 -0.48251,-0.78071 -0.15642,-0.94376 1,-0.5 1.0958,0.4205 1.47549,0.26936 1.05056,-0.41819 -0.43064,-0.69678 0.0959,-0.87758 1.49232,-0.51242 1.36028,0.35572 1.91915,0.17819 1.51214,-0.48035 -0.35508,-0.57454 -0.088,-1.02454 0.59363,-0.99999 3.13303,0.11283 4.81018,-0.34664 4.29688,-1.17718 -0.30822,-0.49871 0.41059,-0.65282 1.59735,-0.34248 1.38267,0.36158 1.92148,0.18197 1.5,-0.5 -0.42148,-0.68197 0.11733,-0.86157 1.5,-0.5 1.38267,0.36158 1.92148,0.18197 1.5,-0.5 -0.42148,-0.68197 0.11733,-0.86157 1.5,-0.5 1.3225,0.34584 1.91539,0.17211 1.53164,-0.4488 -0.38785,-0.62756 0.37026,-0.8226 1.99226,-0.51253 1.68009,0.32117 2.38544,0.12365 1.96835,-0.5512 -0.40509,-0.65546 0.10409,-0.85453 1.35138,-0.52836 1.10076,0.28786 2.00138,0.0833 2.00138,-0.45459 0,-0.53787 1.19188,-0.75011 2.64862,-0.47164 2.01108,0.38444 2.45301,0.1898 1.83596,-0.80861 -0.60223,-0.97443 -0.33954,-1.13337 1.01448,-0.61379 2.15225,0.8259 14.12889,-0.35445 12.68336,-1.24999 -0.54266,-0.3362 6.60433,-0.61127 15.88222,-0.61127 9.27789,0 16.09634,0.3431 15.15212,0.76245 -0.97043,0.43099 0.34031,0.59396 3.01507,0.37488 3.01889,-0.24726 4.50599,-0.0221 4.10796,0.6219 -0.38867,0.62888 0.54082,0.83852 2.46535,0.55606 1.83434,-0.26922 2.84721,-0.0618 2.49342,0.51064 -0.35155,0.56883 0.49002,0.75648 2.05282,0.45773 1.45674,-0.27847 2.64862,-0.0662 2.64862,0.47164 0,0.53788 0.90062,0.74245 2.00138,0.45459 1.26045,-0.32962 1.75788,-0.12937 1.34363,0.54089 -0.42148,0.68197 0.11733,0.86158 1.5,0.5 1.38267,-0.36157 1.92148,-0.18197 1.5,0.5 -0.42148,0.68197 0.11733,0.86158 1.5,0.5 1.38267,-0.36157 1.92148,-0.18197 1.5,0.5 -0.42148,0.68197 0.11733,0.86158 1.5,0.5 1.39639,-0.36516 1.92296,-0.18436 1.49232,0.51242 -0.42493,0.68755 -0.0452,0.83869 1.05056,0.41819 1.14778,-0.44044 1.48145,-0.27899 1.00768,0.48759 -0.48178,0.77953 -0.0182,0.9656 1.44944,0.5818 1.18676,-0.31034 1.90557,-0.15623 1.59735,0.34248 -0.5133,0.83054 1.16385,1.29001 4.29688,1.17718 0.68158,-0.0245 0.94526,0.43103 0.58595,1.0124 -0.4111,0.66519 -0.0172,0.81293 1.0627,0.39855 1.15642,-0.44376 1.48251,-0.28071 1,0.5 -0.4825,0.78072 -0.15641,0.94376 1,0.5 1.15642,-0.44376 1.48251,-0.28071 1,0.5 -0.4825,0.78072 -0.15641,0.94376 1,0.5 1.15642,-0.44376 1.48251,-0.28071 1,0.5 -0.4949,0.80077 -0.13437,0.9353 1.16758,0.4357 1.03596,-0.39754 1.56265,-0.40187 1.17041,-0.01 -1.04163,1.04164 3.07023,3.6366 4.43038,2.79597 0.76638,-0.47364 0.87839,-0.26851 0.3342,0.61201 -0.59931,0.96971 -0.35895,1.14808 0.89743,0.66596 1.01928,-0.39113 1.46793,-0.25712 1.10503,0.33006 -0.54552,0.88268 0.78564,1.38325 1.96403,0.73855 0.25133,-0.1375 1.08306,0.60625 1.8483,1.65278 0.88016,1.20369 1.87125,1.60617 2.69755,1.09549 0.84226,-0.52054 1.06379,-0.41503 0.6237,0.29705 -0.86027,1.39194 2.99146,3.54051 4.64417,2.5906 0.67613,-0.38861 0.89469,-0.33729 0.48569,0.11406 -1.05293,1.16194 2.98667,3.76577 4.49539,2.89763 0.68654,-0.39504 0.91361,-0.34898 0.50461,0.10237 -1.05293,1.16194 2.98667,3.76577 4.49539,2.89763 0.68654,-0.39504 0.91361,-0.34898 0.50461,0.10237 -1.05293,1.16194 2.98667,3.76577 4.49539,2.89763 0.68654,-0.39504 0.91361,-0.34898 0.50461,0.10237 -0.9726,1.07329 2.93897,3.80635 4.27017,2.98362 0.56266,-0.34774 0.89937,-0.0363 0.74825,0.69207 -0.15198,0.73245 0.50253,1.26306 1.46446,1.18723 0.98909,-0.078 1.45747,0.31882 1.08595,0.91994 -0.4111,0.66519 -0.0172,0.81293 1.0627,0.39855 0.94379,-0.36216 1.49209,-0.2962 1.21843,0.14658 -0.27366,0.44279 0.89457,1.62741 2.59605,2.6325 2.12653,1.25618 2.82946,1.39168 2.24862,0.43348 -0.46474,-0.76667 0.65347,0.0937 2.48492,1.91204 1.87665,1.86316 3.94921,3.06833 4.74894,2.76145 0.78046,-0.29949 1.15805,-0.12226 0.83908,0.39384 -0.65049,1.05252 3.32367,3.52445 4.22202,2.6261 0.31606,-0.31606 1.22421,0.35271 2.01811,1.48616 0.80724,1.1525 2.08174,1.81587 2.89163,1.50509 0.80811,-0.3101 1.17815,-0.1188 0.83723,0.43282 -0.56039,0.90673 0.8151,1.43245 2.83141,1.08219 0.45338,-0.0787 0.53932,0.31796 0.19098,0.88158 -0.5687,0.92018 0.72419,1.46065 2.73469,1.1432 0.4125,-0.0651 0.6375,0.42363 0.5,1.08613 -0.1375,0.6625 0.425,1.225 1.25,1.25 0.825,0.025 1.53669,0.49545 1.58153,1.04545 0.22232,2.72669 1.72486,6.42868 2.43188,5.99171 0.44004,-0.27196 0.54615,0.47652 0.23581,1.66328 -0.41091,1.57133 -0.22056,1.94533 0.70039,1.37615 0.93158,-0.57574 1.08701,-0.22187 0.59014,1.34363 -0.41526,1.30837 -0.24157,2.12523 0.45188,2.12523 0.61952,0 0.8061,0.51827 0.41461,1.1517 -0.39148,0.63344 0.11797,1.75844 1.13211,2.5 1.01415,0.74157 1.46316,1.3483 0.99779,1.3483 -0.46536,0 -0.0412,0.88939 0.94252,1.97642 0.98375,1.08703 2.18167,1.73351 2.66205,1.43662 0.48038,-0.29689 1.14977,0.18036 1.48753,1.06056 0.85203,2.22035 6.0824,4.75302 8.33758,4.03725 1.02623,-0.32571 2.15529,-0.1239 2.50904,0.44847 0.35375,0.57238 2.07912,1.03379 3.83416,1.02537 2.53208,-0.0121 2.88125,-0.23534 1.69098,-1.08089 -1.14834,-0.81576 -0.83565,-0.91999 1.33379,-0.4446 1.55858,0.34153 2.61426,0.26543 2.34596,-0.16912 -0.26831,-0.43454 0.68171,-0.86044 2.11115,-0.94643 1.42943,-0.086 3.07375,-0.80049 3.65404,-1.58777 0.58028,-0.78728 1.6802,-1.22105 2.44426,-0.96392 0.78222,0.26324 1.10931,0.0147 0.74862,-0.56897 -0.401,-0.64883 0.16643,-0.82544 1.51717,-0.47221 1.5864,0.41486 1.94763,0.22428 1.36421,-0.71971 -0.60935,-0.98595 -0.37502,-1.04976 1.00955,-0.27492 1.06614,0.59664 2.96932,0.6746 4.65647,0.19073 1.98667,-0.56977 2.64814,-0.48627 2.1777,0.27492 -0.44284,0.71654 0.0679,0.89881 1.48209,0.52898 1.39639,-0.36516 1.92296,-0.18436 1.49232,0.51242 -0.43644,0.70619 -0.0173,0.82796 1.21814,0.35389 1.03596,-0.39754 1.5614,-0.40063 1.16764,-0.007 -1.00923,1.00923 5.16019,4.57994 6.49152,3.75713 0.63062,-0.38974 0.81087,-0.21763 0.42536,0.40615 -0.63955,1.03481 2.94365,2.87054 4.68434,2.39985 0.45338,-0.1226 0.49206,0.31472 0.0859,0.97181 -0.508,0.82198 -0.203,0.98928 0.97761,0.53623 1.15642,-0.44376 1.48251,-0.28071 1,0.5 -0.4949,0.80077 -0.13437,0.9353 1.16758,0.4357 1.03596,-0.39754 1.56265,-0.40187 1.17041,-0.01 -0.93541,0.93541 2.99977,3.68014 4.20678,2.93417 0.51103,-0.31583 1.25477,-0.0474 1.65275,0.59658 0.4824,0.78054 0.28727,0.90114 -0.58541,0.3618 -0.89222,-0.55142 -1.06841,-0.41971 -0.55336,0.41367 0.41561,0.67247 1.40852,0.97215 2.20645,0.66596 0.79793,-0.3062 1.205,-0.15903 0.90459,0.32704 -0.51783,0.83786 1.20316,1.97928 2.58733,1.71601 0.85662,-0.16293 4.80855,3.44092 4.65654,4.24639 -0.26261,1.39153 1.46458,4.08449 2.29178,3.57325 0.48607,-0.30041 0.58744,0.226 0.22528,1.16979 -0.44376,1.15641 -0.28072,1.4825 0.5,1 0.78071,-0.48251 0.94376,-0.15642 0.5,1 -0.4205,1.0958 -0.26936,1.47549 0.41819,1.05056 0.69678,-0.43064 0.87758,0.0959 0.51242,1.49232 -0.31035,1.18677 -0.15588,1.90536 0.34326,1.59687 0.49913,-0.30848 0.90752,1.60318 0.90752,4.24814 0,2.64496 -0.40839,4.55662 -0.90752,4.24814 -0.49914,-0.30849 -0.65361,0.4101 -0.34326,1.59687 0.36157,1.38267 0.18197,1.92148 -0.5,1.5 -0.68197,-0.42148 -0.86158,0.11733 -0.5,1.5 0.36516,1.39639 0.18436,1.92296 -0.51242,1.49232 -0.70619,-0.43644 -0.82796,-0.0173 -0.35389,1.21814 0.39754,1.03596 0.40187,1.56265 0.01,1.17041 -1.04164,-1.04163 -3.6366,3.07023 -2.79597,4.43038 0.47364,0.76638 0.26851,0.87839 -0.61201,0.3342 -0.96971,-0.59931 -1.14808,-0.35895 -0.66596,0.89743 0.39113,1.01928 0.25712,1.46793 -0.33006,1.10503 -0.5437,-0.33602 -0.98855,-0.1344 -0.98855,0.44806 0,1.95685 -0.29437,2.55378 -1.80354,3.65732 -0.91323,0.66777 -1.18556,1.61032 -0.69473,2.4045 0.53363,0.86344 0.41593,1.06435 -0.34722,0.59269 C 843.51953,252.20305 843,252.35852 843,252.94098 c 0,0.58246 -0.0116,1.27331 -0.0257,1.53521 -0.0141,0.26191 -1.15534,1.69512 -2.53603,3.18491 -1.45322,1.56805 -2.26236,3.35495 -1.92146,4.24332 0.32389,0.84404 0.26796,1.2137 -0.12427,0.82146 -1.04164,-1.04163 -3.6366,3.07023 -2.79597,4.43038 0.47364,0.76638 0.26851,0.87839 -0.61201,0.3342 -0.99264,-0.61348 -1.14337,-0.34666 -0.60166,1.06501 0.39754,1.03596 0.40187,1.56265 0.01,1.17041 -1.04164,-1.04163 -3.6366,3.07023 -2.79597,4.43038 0.47364,0.76638 0.26851,0.87839 -0.61201,0.3342 -0.99264,-0.61348 -1.14337,-0.34666 -0.60166,1.06501 0.39754,1.03596 0.40187,1.56265 0.01,1.17041 -1.06595,-1.06595 -3.62201,3.08021 -2.79016,4.52587 0.39504,0.68654 0.34898,0.91361 -0.10237,0.50461 -1.13653,-1.0299 -3.78178,2.97873 -2.90344,4.3999 0.47364,0.76638 0.26851,0.87839 -0.61201,0.3342 -0.99264,-0.61348 -1.14337,-0.34666 -0.60166,1.06501 0.39754,1.03596 0.40187,1.56265 0.01,1.17041 -1.06595,-1.06595 -3.62201,3.08021 -2.79016,4.52587 0.39504,0.68654 0.34898,0.91361 -0.10237,0.50461 -1.13653,-1.0299 -3.78178,2.97873 -2.90344,4.3999 0.42411,0.68623 0.27434,0.882 -0.37008,0.48373 -1.03481,-0.63955 -2.87054,2.94365 -2.39985,4.68434 0.1226,0.45338 -0.31472,0.49206 -0.97181,0.086 -0.82198,-0.508 -0.98928,-0.203 -0.53623,0.97761 0.39113,1.01928 0.25712,1.46793 -0.33006,1.10503 -0.5437,-0.33602 -1.0448,-0.1344 -1.11355,0.44806 -0.0688,0.58246 -0.2017,1.62152 -0.29545,2.30902 -0.0937,0.6875 -0.65892,1.15536 -1.25594,1.03969 -0.59701,-0.11567 -1.92655,0.77657 -2.95454,1.98277 -1.84294,2.16242 -1.84111,2.17235 0.13093,0.71031 1.84341,-1.36668 1.89462,-1.34826 0.65409,0.23526 -0.74025,0.94492 -1.64025,1.67913 -2,1.63158 -1.98427,-0.26226 -3.19415,0.27655 -2.63878,1.17517 0.34834,0.56362 0.2624,0.93981 -0.19098,0.83596 -1.43386,-0.32843 -6.32824,1.32399 -5.91185,1.99593 0.21927,0.35383 -2.66435,0.64333 -6.40804,0.64333 -3.81828,0 -6.56194,-0.39844 -6.2492,-0.90752 0.30663,-0.49914 -0.41348,-0.65361 -1.60025,-0.34326 -1.39639,0.36516 -1.92296,0.18436 -1.49232,-0.51242 0.42493,-0.68755 0.0452,-0.83869 -1.05056,-0.41819 -0.94584,0.36295 -1.46176,0.24713 -1.14953,-0.25807 0.5611,-0.90787 -3.19992,-2.66302 -4.78691,-2.23389 -0.45338,0.1226 -0.49206,-0.31472 -0.0859,-0.97181 0.508,-0.82198 0.203,-0.98928 -0.97761,-0.53623 -1.01928,0.39113 -1.46793,0.25712 -1.10503,-0.33006 0.56039,-0.90673 -0.8151,-1.43245 -2.83141,-1.08219 -0.45338,0.0788 -0.55935,-0.28556 -0.23548,-0.80959 0.57772,-0.93477 -3.14437,-2.70821 -4.76452,-2.27012 -0.45338,0.1226 -0.49206,-0.31472 -0.0859,-0.97181 0.52078,-0.84265 0.18331,-0.98172 -1.14519,-0.47193 -1.03596,0.39754 -1.56265,0.40187 -1.17041,0.01 1.04163,-1.04164 -3.07023,-3.6366 -4.43038,-2.79597 -0.71359,0.44102 -0.88092,0.2726 -0.43923,-0.44207 0.64784,-1.04824 -0.59837,-1.61825 -2.72884,-1.24815 -0.45338,0.0788 -0.53932,-0.31796 -0.19098,-0.88158 0.55506,-0.89811 -0.80142,-1.45722 -1.8797,-0.77478 -0.78742,0.49835 -4.54428,-3.53922 -4.04493,-4.34717 0.28209,-0.45644 -0.36602,-1.70879 -1.44025,-2.78302 -1.07423,-1.07423 -1.69064,-2.21564 -1.36981,-2.53648 0.32083,-0.32083 0.17083,-0.58305 -0.33333,-0.58271 -0.50417,3.4e-4 -0.83787,-2.36216 -0.74155,-5.25 0.15566,-4.66713 0.0869,-4.86167 -0.61836,-1.75062 l -0.79348,3.5 -0.13164,-3.19098 c -0.0724,-1.75504 0.35482,-3.49164 0.94939,-3.8591 0.59456,-0.36746 0.81099,-1.74402 0.48095,-3.05901 -0.33005,-1.315 -0.24639,-2.39091 0.1859,-2.39091 1.41942,0 1.08248,-7.85112 -0.36071,-8.40492 -0.7444,-0.28566 -1.10218,-1.17418 -0.79507,-1.9745 0.76197,-1.98567 -9.30758,-9.92825 -11.77045,-9.28419 C 730.81974,254.59839 730,254.40489 730,253.90638 730,253.40787 728.17344,253 725.94098,253 c -2.23246,0 -3.80684,0.40803 -3.49862,0.90674 0.30822,0.49871 -0.22772,0.70642 -1.19098,0.46157 -1.95763,-0.49759 -9.5791,5.29241 -8.74436,6.64305 0.28908,0.46775 -10e-4,1.17607 -0.64522,1.57405 -0.77642,0.47986 -0.92536,0.2505 -0.44215,-0.6809 0.40077,-0.77248 0.0347,-0.55072 -0.81346,0.49281 -0.84817,1.04353 -1.30498,2.28103 -1.01514,2.75 0.28984,0.46897 -0.0246,0.85268 -0.6987,0.85268 -0.67413,0 -0.93268,0.29301 -0.57456,0.65112 0.35812,0.35812 -0.042,1.15795 -0.88915,1.7774 -0.84714,0.61945 -1.64737,1.85605 -1.77828,2.74799 -0.38452,2.6199 -2.67049,4.753 -4.38752,4.09411 -1.04782,-0.40209 -1.34651,-0.21501 -0.87495,0.54799 0.48251,0.78071 0.15642,0.94376 -1,0.5 -1.0197,-0.3913 -1.46797,-0.25719 -1.10475,0.33051 0.37028,0.59912 -0.55059,0.81847 -2.33595,0.55644 -1.71371,-0.25152 -2.94719,0.0203 -2.94719,0.64956 0,0.59516 -0.68073,0.82089 -1.51273,0.50162 -1.69879,-0.65188 -4.07475,1.00394 -5.64163,3.93169 -0.83038,1.55157 -0.76778,1.78488 0.30459,1.13525 0.74237,-0.44972 -0.13792,0.68078 -1.95622,2.51223 -1.86316,1.87665 -3.06833,3.94921 -2.76145,4.74894 0.30128,0.78512 0.10293,1.1461 -0.44401,0.80807 -0.94679,-0.58515 -1.45009,0.89337 -1.02364,3.00708 0.11097,0.55 -0.13288,0.66536 -0.54188,0.25636 -1.00117,-1.00117 -3.70737,2.97455 -2.90663,4.27017 0.34774,0.56266 0.0363,0.89937 -0.69207,0.74825 -0.75162,-0.15595 -1.25946,0.51084 -1.17433,1.54189 0.0825,0.99916 -0.10214,1.56453 -0.41031,1.25636 -0.93659,-0.9366 -3.40703,3.3472 -2.64311,4.58323 0.44102,0.71359 0.2726,0.88092 -0.44207,0.43923 -1.03093,-0.63714 -1.60398,0.55787 -1.27293,2.65451 0.0651,0.4125 -0.32002,0.75 -0.8559,0.75 -0.53588,0 -1.67243,1.35 -2.52568,3 -0.85325,1.65 -1.2288,3 -0.83455,3 0.39424,0 -0.1567,0.66069 -1.22432,1.4682 -1.06762,0.8075 -1.60363,1.4825 -1.19113,1.5 0.4125,0.0175 -0.16641,0.94821 -1.28647,2.06827 -1.12007,1.12007 -1.72554,2.53959 -1.3455,3.15451 0.39546,0.63986 0.24202,0.84056 -0.35874,0.46927 -0.57734,-0.35682 -1.40569,0.13615 -1.84076,1.09549 -0.82616,1.82169 -1.68271,186.12885 -0.88257,189.90622 0.26006,1.22774 1.12146,2.06458 1.99343,1.93661 2.05852,-0.30213 13.51769,-11.71337 12.84903,-12.79529 -0.28989,-0.46906 0.0689,-0.72918 0.79725,-0.57806 0.72838,0.15113 1.20068,-0.32117 1.04955,-1.04955 -0.15112,-0.72838 0.11752,-1.08188 0.59698,-0.78556 0.47946,0.29633 2.1498,-0.79522 3.71187,-2.42567 C 680.09613,499.334 681.00989,498 680.56465,498 c -0.44525,0 -0.25345,-0.67005 0.42621,-1.48899 0.67967,-0.81894 1.5659,-1.28494 1.96942,-1.03556 0.76391,0.47212 6.30828,-4.84163 6.13727,-5.88199 -0.0536,-0.3264 0.23995,-0.61422 0.65245,-0.6396 1.42026,-0.0874 7.17137,-6.27206 6.63676,-7.13709 -0.29448,-0.47648 0.0605,-0.74267 0.78891,-0.59155 0.72838,0.15113 1.20068,-0.32117 1.04955,-1.04955 -0.15112,-0.72838 0.1212,-1.0796 0.60517,-0.7805 0.99135,0.61269 40.78131,-39.95536 40.46903,-41.26041 -0.11032,-0.46102 1.46468,-2.36745 3.5,-4.23649 L 746.5,430.5 l -3.47622,4 c -1.91192,2.2 8.32558,-7.69675 22.75,-21.99279 C 780.1982,398.21118 792,386.29001 792,386.01574 c 0,-0.27428 -10.0125,9.39721 -22.25,21.49219 -20.12976,19.89535 -19.77311,19.48954 3.74279,-4.25852 C 787.78882,388.81223 799.69265,377 799.94574,377 c 0.25308,0 -1.31313,1.9125 -3.48048,4.25 -2.16734,2.3375 -0.0315,0.45762 4.74637,-4.1775 4.77785,-4.63513 8.47747,-8.76653 8.22137,-9.1809 -0.50974,-0.82478 1.20969,-2.12659 3.567,-2.70064 4.88656,-1.18996 12,-1.68019 12,-0.82699 0,0.53315 0.29396,0.67541 0.65324,0.31612 0.35928,-0.35928 1.64032,0.68468 2.84676,2.31991 1.20644,1.63523 2.45699,2.70968 2.77901,2.38766 0.32201,-0.32202 0.32009,0.42939 -0.004,1.6698 -0.3253,1.24397 -0.18282,2.00377 0.31776,1.69439 0.54208,-0.33504 0.90752,72.24635 0.90752,180.24812 0,99.44496 -0.2895,180.63011 -0.64333,180.41143 -0.58327,-0.36047 -2.07476,3.63095 -2.27514,6.0886 -0.0448,0.55 -0.75653,1.02045 -1.58153,1.04545 -0.825,0.025 -1.3929,0.57131 -1.262,1.21402 0.1436,0.70505 -0.41728,0.9171 -1.41404,0.5346 -1.1009,-0.42245 -1.41318,-0.24746 -0.93607,0.52454 0.48251,0.78071 0.15642,0.94376 -1,0.5 -0.94955,-0.36438 -1.46204,-0.24761 -1.14743,0.26145 C 822.58571,744.13868 752.18565,744.5 643,744.5 c -98.89496,0 -179.60043,-0.3375 -179.34549,-0.75 z m 137.08426,-16.21837 c 2.88133,-0.36495 5.80633,-0.30963 6.5,0.12293 C 608.88757,728.68272 812,728.81262 812,727.78552 812,727.35349 812.75,727 813.66667,727 c 0.91666,0 1.36508,-0.30158 0.99649,-0.67017 -0.3686,-0.3686 -0.0839,-1.6061 0.63262,-2.75 1.05845,-1.68974 1.27408,-33.26532 1.14965,-168.35036 -0.0842,-91.44879 -0.44857,-166.56594 -0.80963,-166.927 -0.36105,-0.36106 -1.36019,0.21068 -2.22029,1.27053 -0.8601,1.05985 -1.23593,1.29497 -0.83516,0.52249 0.48321,-0.9314 0.33427,-1.16076 -0.44215,-0.6809 -0.64395,0.39798 -0.94823,1.08377 -0.67617,1.52397 0.27206,0.44021 -14.9081,16.01848 -33.73369,34.61838 -18.82559,18.59991 -33.5959,33.43887 -32.82291,32.97546 0.77299,-0.46341 -0.54438,1.22942 -2.92748,3.76185 -2.3831,2.53242 -4.77258,4.33268 -5.30994,4.00057 -0.53737,-0.33211 -0.68997,-0.13937 -0.33913,0.42831 0.35085,0.56767 -7.66452,9.05231 -17.81192,18.85474 -10.1474,9.80244 -18.23581,18.03662 -17.97424,18.29818 0.77331,0.77332 -3.75222,5.11251 -4.71286,4.5188 -0.48368,-0.29893 -0.75576,-0.0654 -0.60464,0.51898 0.15113,0.58437 -6.47522,7.64551 -14.72522,15.69142 -8.25,8.04591 -14.325,14.27389 -13.5,13.83995 0.99616,-0.52397 0.86729,-0.0674 -0.38365,1.35932 -1.036,1.18158 -2.22251,1.93888 -2.63669,1.68291 -0.41418,-0.25598 -1.36653,0.31714 -2.11635,1.27358 -1.26056,1.60793 -1.21258,1.62724 0.63669,0.25622 1.97532,-1.46446 1.97675,-1.4555 0.11635,0.72642 -1.036,1.21505 -2.34303,1.92527 -2.90451,1.57826 -0.56147,-0.34701 -0.73843,-0.17395 -0.39324,0.38458 0.34519,0.55853 -9.98509,11.42806 -22.95618,24.15451 -46.3721,47.43405 -93.27381,94.36984 -139.85138,141.639 -6.44558,6.6 -11.36259,11.325 -10.92669,10.5 0.43589,-0.825 -0.40949,-0.375 -1.87863,1 -1.46914,1.375 -2.67903,2.95 -2.68864,3.5 -0.0115,0.65804 19.02401,0.90878 55.66598,0.73325 35.27714,-0.16899 56.04142,0.0912 56.66027,0.71008 0.53726,0.53726 1.2423,0.81371 1.56675,0.61433 0.32446,-0.19937 2.94737,-0.66109 5.82869,-1.02603 z m 30.75115,-47.54794 c -0.34546,-0.55897 -1.04702,-0.75742 -1.55902,-0.44098 C 629.41891,679.85914 629,679.61492 629,679 c 0,-0.61492 -0.39901,-0.87143 -0.88669,-0.57003 -1.70026,1.05082 -3.34365,-2.44752 -3.5567,-7.57123 l -0.21458,-5.16064 28.82899,-28.68069 C 669.02696,621.24304 682,607.83752 682,607.22738 c 0,-0.61014 0.51953,-1.43043 1.15451,-1.82287 0.7792,-0.48157 0.88586,-0.25694 0.3281,0.69098 -0.45452,0.77248 0.15095,0.54727 1.3455,-0.50048 2.33369,-2.0469 2.90233,-3.16448 1.01738,-1.99952 -0.7153,0.44208 -0.88306,0.27432 -0.44098,-0.44098 C 685.79695,602.51953 686.577,602 687.13796,602 c 1.13167,0 9.9664,-8.53548 9.44719,-9.12719 -0.17992,-0.20505 0.58395,-1.27281 1.6975,-2.37281 1.18844,-1.17399 1.73287,-1.38049 1.31821,-0.5 -0.38852,0.825 0.77984,-0.28591 2.59637,-2.46869 7.19127,-8.64119 13.10673,-14.46149 14.08405,-13.85747 0.56526,0.34935 0.74382,0.17579 0.39681,-0.38568 -0.80148,-1.29683 2.7015,-4.54898 3.81339,-3.54034 0.45604,0.4137 0.55127,0.26379 0.21161,-0.33314 -0.33966,-0.59692 6.86428,-8.47192 16.00876,-17.5 9.14447,-9.02807 16.29186,-15.73968 15.88308,-14.91468 -0.44296,0.89396 -0.16371,0.79295 0.69116,-0.25 1.47093,-1.79457 7.71391,-2.48815 7.71391,-0.85699 0,0.49116 0.69837,1.161 1.55194,1.48855 1.04847,0.40233 1.31712,0.19374 0.8281,-0.64301 -0.3981,-0.6812 0.22318,-0.40877 1.38063,0.60541 1.15745,1.01417 1.86165,2.47667 1.5649,3.25 -0.29675,0.77332 -0.0625,1.40604 0.52058,1.40604 0.73724,0 1.02465,19.99459 0.94366,65.64999 l -0.11647,65.64999 -3.33667,3.43586 C 762.5015,678.62556 761,679.81807 761,679.38585 c 0,-0.43222 -0.54,-0.24585 -1.2,0.41415 -1.57219,1.57219 -127.34066,1.75224 -128.31008,0.18369 z M 750.1626,663.07828 c 0.0894,-0.31806 0.24573,-20.49078 0.34733,-44.82828 0.11805,-28.27681 -0.16808,-44.25 -0.79265,-44.25 -0.56841,0 -0.76285,-1.90338 -0.46467,-4.5488 0.47861,-4.24617 0.3987,-4.44561 -1.2011,-2.99782 -0.9426,0.85304 -2.05229,1.2125 -2.46599,0.7988 -0.4137,-0.4137 -0.60219,-0.0976 -0.41885,0.70237 0.18333,0.8 -0.1375,1.475 -0.71295,1.5 -0.57545,0.025 -12.93266,12.19545 -27.46046,27.04545 -14.5278,14.85 -30.25698,30.83341 -34.95372,35.51869 C 677.34279,636.70398 668.775,645.4754 663,651.51074 l -10.5,10.97335 3.5,0.63136 c 4.37388,0.78899 93.94024,0.75363 94.1626,-0.0372 z M 696,618.62244 c 0,-0.20765 0.7875,-0.99515 1.75,-1.75 1.58606,-1.24387 1.62143,-1.2085 0.37756,0.37756 C 696.82119,618.91575 696,619.44548 696,618.62244 Z m 4,-4 c 0,-0.20765 0.7875,-0.99515 1.75,-1.75 1.58606,-1.24387 1.62143,-1.2085 0.37756,0.37756 C 700.82119,614.91575 700,615.44548 700,614.62244 Z M 712,602.5 c 4.65071,-4.675 8.68084,-8.5 8.95584,-8.5 0.275,0 -3.30513,3.825 -7.95584,8.5 -4.65071,4.675 -8.68084,8.5 -8.95584,8.5 -0.275,0 3.30513,-3.825 7.95584,-8.5 z M 709.5,581 c 0.99549,-1.1 1.58498,-2 1.30998,-2 -0.275,0 -1.31449,0.9 -2.30998,2 -0.99549,1.1 -1.58498,2 -1.30998,2 0.275,0 1.31449,-0.9 2.30998,-2 z M 210,709.69617 c 0,-0.16711 -1.6875,-1.85461 -3.75,-3.75 L 202.5,702.5 l 3.44617,3.75 c 3.20761,3.49042 4.05383,4.20979 4.05383,3.44617 z m 37.50187,-1.69315 c -0.40642,-0.65759 0.24227,-0.6706 1.90558,-0.0382 1.61163,0.61274 2.73628,0.61165 3.11617,-0.003 0.32693,-0.52898 1.35536,-0.93016 2.2854,-0.8915 1.5049,0.0625 1.49371,0.14817 -0.10172,0.77806 -0.98598,0.38928 44.23902,0.69515 100.5,0.67971 38.79166,-3.15457 81.25181,2.02783 118.85862,-0.0972 0,0 160.12041,-161.16021 162.53817,-163.53305 L 641,540.58358 640.98469,430.54179 C 640.9746,358.0716 640.63365,321.01215 639.98608,322 c -0.69221,1.05597 -0.78948,0.49191 -0.32858,-1.90549 0.44093,-2.29359 0.30768,-3.19102 -0.40814,-2.74862 -0.68027,0.42043 -0.85974,-0.11981 -0.49858,-1.50088 0.3838,-1.46765 0.19773,-1.93122 -0.5818,-1.44944 -0.73434,0.45384 -0.93939,0.16971 -0.57077,-0.79089 1.52367,-3.97063 -14.52986,-25.00102 -17.62452,-23.08842 -0.56279,0.34782 -0.89959,0.0365 -0.74847,-0.69193 0.15255,-0.73522 -0.50369,-1.26255 -1.47522,-1.18544 -0.9625,0.0764 -1.75,-0.53426 -1.75,-1.35699 0,-0.94108 -0.57559,-1.275 -1.55194,-0.90034 -0.85356,0.32754 -1.29703,0.18308 -0.98548,-0.32102 0.73463,-1.18865 -3.08963,-2.40907 -4.60814,-1.47058 -0.73235,0.45262 -0.89367,0.28253 -0.43535,-0.45904 0.53246,-0.86155 -0.4336,-1.04167 -3.5955,-0.67037 -3.28224,0.38543 -3.72146,0.2947 -1.82359,-0.37673 8.67505,-3.06908 -179.29225,-5.31096 -362.13394,-0.60146 -22.54805,0.58078 -36.32349,15.04388 -36.12214,39.19751 0.82959,99.51679 2.44593,223.25645 -0.19107,330.98966 -0.1616,1.00676 -0.0273,2.28047 0.29855,2.83047 0.98333,1.66001 1.08927,3.91781 0.21,4.47524 -0.45527,0.28862 -0.59887,2.87893 -0.31913,5.75624 0.27975,2.87732 0.83717,5.02844 1.23872,4.78027 0.40155,-0.24818 0.50486,0.72704 0.22956,2.16714 -0.32117,1.68009 -0.12365,2.38544 0.5512,1.96835 0.66703,-0.41224 0.84533,0.13927 0.48747,1.50775 -0.3838,1.46765 -0.19773,1.93122 0.5818,1.44944 0.73191,-0.45234 0.94013,-0.17164 0.57619,0.77678 -0.50759,1.32275 4.08566,10.61879 5.24683,10.61879 0.2552,0 0.14291,-0.51953 -0.24953,-1.15451 -0.44563,-0.72104 -0.27393,-0.88282 0.45729,-0.4309 0.64395,0.39798 0.93205,1.10994 0.64022,1.58213 -0.29183,0.47219 0.63714,2.1286 2.06437,3.68091 1.42723,1.5523 2.3071,2.25987 1.95527,1.57237 -0.97634,-1.90784 -0.0457,-1.49402 2.07335,0.92189 1.04775,1.19455 1.27296,1.80002 0.50048,1.3455 -0.94547,-0.55631 -1.17239,-0.45083 -0.6943,0.32272 0.39061,0.63203 1.63944,1.64645 2.77518,2.25428 1.66291,0.88996 1.90578,0.84233 1.24731,-0.24462 -0.44972,-0.74237 0.68078,0.13792 2.51223,1.95622 1.87665,1.86316 3.94921,3.06833 4.74894,2.76145 0.78512,-0.30128 1.1461,-0.10293 0.80807,0.44401 -0.55731,0.90176 1.03735,1.37456 4.24632,1.25899 0.68158,-0.0245 0.9522,0.41981 0.60137,0.98745 -0.40223,0.65083 0.32938,0.84719 1.9805,0.53156 1.4401,-0.2753 2.39844,-0.14469 2.12964,0.29023 -0.26879,0.43493 0.98232,0.9729 2.78027,1.19551 1.79794,0.2226 3.40804,0.47675 3.578,0.56477 0.16996,0.088 0.0317,-0.2886 -0.30715,-0.83694 z m 223.76716,-0.65891 c 0.67703,0.27393 -0.11903,0.48137 -1.76903,0.46099 -1.65,-0.0204 1.092,-0.73496 1.76903,-0.46099 z M 637.5,542 c 0.99549,-1.1 2.03498,-2 2.30998,-2 0.275,0 -0.31449,0.9 -1.30998,2 -0.99549,1.1 -2.03498,2 -2.30998,2 -0.275,0 0.31449,-0.9 1.30998,-2 z m -9.62756,-243.75 c -1.24387,-1.58606 -1.2085,-1.62143 0.37756,-0.37756 0.9625,0.75485 1.75,1.54235 1.75,1.75 0,0.82304 -0.82119,0.29331 -2.12756,-1.37244 z m -4,-4 c -1.24387,-1.58606 -1.2085,-1.62143 0.37756,-0.37756 0.9625,0.75485 1.75,1.54235 1.75,1.75 0,0.82304 -0.82119,0.29331 -2.12756,-1.37244 z m 116.25512,169 c 1.24387,-1.58606 1.2085,-1.62143 -0.37756,-0.37756 -0.9625,0.75485 -1.75,1.54235 -1.75,1.75 0,0.82304 0.82119,0.29331 2.12756,-1.37244 z M 654.43927,302.91705 c -0.39105,-0.64981 4.39235,-8.07016 5.82029,-9.02885 0.50119,-0.3365 0.86371,-0.90371 0.80559,-1.26048 C 660.8527,291.32361 664.08134,286 665.0847,286 c 0.56833,0 0.76536,-0.43359 0.43784,-0.96353 -0.32752,-0.52993 0.32092,-1.87993 1.44099,-3 1.12006,-1.12006 1.82315,-2.03647 1.56242,-2.03647 -0.26073,0 0.85111,-2.24749 2.47076,-4.99441 2.59762,-4.40559 3.1929,-8.85885 1.00329,-7.50559 -0.43474,0.26868 -1.05941,-0.21242 -1.38815,-1.06913 -0.32875,-0.8567 -1.01462,-1.29998 -1.52417,-0.98506 -0.50954,0.31491 -1.60558,-0.10656 -2.43563,-0.93662 C 665.82199,263.67914 664.66071,263 664.07143,263 663.48214,263 663,262.52344 663,261.94098 c 0,-0.58246 -0.39339,-0.81589 -0.87419,-0.51873 -0.48081,0.29715 -2.02804,-0.52906 -3.43828,-1.83604 -1.41025,-1.30697 -2.81687,-2.12354 -3.12581,-1.8146 -0.30895,0.30895 -0.56172,0.0102 -0.56172,-0.66396 0,-0.67413 -0.45318,-0.9456 -1.00706,-0.60328 -0.55389,0.34231 -1.27604,-0.0785 -1.60479,-0.93524 -0.32874,-0.85671 -0.93242,-1.35079 -1.34149,-1.09797 -0.40908,0.25282 -1.71192,-0.44229 -2.89522,-1.5447 -1.18329,-1.1024 -2.16575,-1.64934 -2.18324,-1.21542 -0.0175,0.43393 -0.6925,-0.0846 -1.5,-1.15217 -0.80751,-1.06762 -1.4682,-1.57502 -1.4682,-1.12755 0,0.44746 -0.66776,0.25938 -1.4839,-0.41796 -1.23399,-1.02412 -1.78135,-0.68153 -3.25,2.03417 -0.97136,1.79613 -2.4411,4.02022 -3.2661,4.94242 -0.825,0.92219 -1.64625,2.31422 -1.825,3.09338 -0.17875,0.77917 -0.74405,1.5676 -1.25623,1.75208 -0.51218,0.18448 -0.69929,0.7107 -0.41581,1.16938 0.28348,0.45868 -0.0592,1.43275 -0.76148,2.16459 -0.7023,0.73184 -2.12594,3.24571 -3.16366,5.58637 -1.03772,2.34067 -2.4655,4.73607 -3.17285,5.32312 -1.3545,1.12413 -0.78221,4.27231 0.61919,3.4062 0.44803,-0.2769 1.41338,0.0684 2.14522,0.7674 0.73184,0.69897 2.58611,1.82666 4.12059,2.50597 3.75436,1.66204 13.76811,11.33857 13.00742,12.56938 -0.33352,0.53966 -0.12227,0.68198 0.46946,0.31628 0.6333,-0.39141 2.16544,1.56208 3.72462,4.74893 1.45681,2.97762 2.89015,5.65526 3.18519,5.9503 0.65983,0.65983 3.25054,-1.61548 2.76261,-2.42628 z m 141.39609,-3.48431 c 1.46555,-0.86871 3.77663,-3.8184 5.13572,-6.55485 1.3591,-2.73646 3.28098,-5.8447 4.27086,-6.90721 0.98987,-1.0625 1.76155,-2.27807 1.71484,-2.70125 C 806.81704,282.00334 812.35113,273 813.2691,273 c 0.46691,0 0.61294,-0.38185 0.3245,-0.84856 -0.28844,-0.4667 0.3329,-1.7688 1.38076,-2.89355 1.04786,-1.12474 1.6323,-2.31789 1.29876,-2.65144 C 815.93957,266.2729 816.10127,266 816.63244,266 c 0.53118,0 1.53531,-1.575 2.2314,-3.5 0.69609,-1.925 1.71305,-3.5 2.2599,-3.5 0.54686,0 0.74532,-0.40285 0.44102,-0.89522 -0.3043,-0.49236 0.14766,-1.16419 1.00437,-1.49293 0.8567,-0.32875 1.27755,-1.0509 0.93524,-1.60479 C 823.16205,254.45318 823.35852,254 823.94098,254 c 0.58246,0 1.00573,-0.3375 0.9406,-0.75 -0.28037,-1.77566 0.24099,-3.00444 2.13927,-5.04201 1.11147,-1.19302 1.96511,-2.29038 1.89697,-2.43856 C 828.59275,245.06251 832.47187,238 833.18521,238 833.63335,238 834,237.325 834,236.5 c 0,-0.825 0.45,-1.5 1,-1.5 0.55,0 0.92618,-0.3375 0.83596,-0.75 -0.33158,-1.51604 1.4091,-6.25 2.29813,-6.25 0.5045,0 0.24866,-1.29295 -0.56853,-2.87322 -0.81719,-1.58026 -1.24483,-3.11418 -0.95032,-3.40869 0.29452,-0.29451 -0.39843,-0.83189 -1.53988,-1.19417 C 833.93391,220.16164 833,219.41899 833,218.8736 c 0,-0.5454 -0.40285,-0.74266 -0.89522,-0.43836 -0.49236,0.3043 -1.16419,-0.14766 -1.49293,-1.00437 -0.32875,-0.8567 -1.0509,-1.27755 -1.60479,-0.93524 C 828.45318,216.83795 828,216.61492 828,216 c 0,-0.61492 -0.40285,-0.86906 -0.89522,-0.56476 -0.49236,0.3043 -1.16419,-0.14766 -1.49293,-1.00437 -0.32875,-0.8567 -0.98275,-1.31967 -1.45334,-1.02883 -0.47059,0.29084 -1.82377,-0.37317 -3.00707,-1.47558 -1.18329,-1.1024 -2.16575,-1.64934 -2.18324,-1.21542 -0.0175,0.43393 -0.65152,-0.0285 -1.40894,-1.02763 -0.75742,-0.99912 -1.75561,-1.84053 -2.21819,-1.8698 -0.46259,-0.0293 -1.93175,-0.46789 -3.26479,-0.97471 -3.21329,-1.22169 -7.37183,-0.22111 -10.27907,2.47323 -1.29845,1.20337 -4.79569,6.46292 -7.77166,11.6879 -2.97596,5.22498 -5.77695,9.6509 -6.22442,9.83538 -0.44748,0.18448 -0.55923,0.74698 -0.24834,1.25 0.31088,0.50302 0.0887,0.91459 -0.49377,0.91459 -0.58246,0 -1.05902,0.675 -1.05902,1.5 0,0.825 -0.47656,1.5 -1.05902,1.5 -0.58246,0 -0.82302,0.38185 -0.53458,0.84856 0.28844,0.4667 -0.27022,1.7042 -1.24147,2.75 -0.97125,1.04579 -2.03878,2.61653 -2.37229,3.49054 -0.33351,0.874 -4.16064,7.399 -8.50474,14.5 -9.09122,14.86079 -10.84072,18.70358 -10.40524,22.85523 0.3343,3.18702 3.42946,7.83421 5.41759,8.13415 2.05827,0.31052 8.69975,4.56982 8.69975,5.57931 0,0.52814 0.45,0.68213 1,0.34221 0.55,-0.33992 1,-0.11492 1,0.5 0,0.61492 0.40285,0.86906 0.89522,0.56476 0.49236,-0.3043 1.16419,0.14766 1.49293,1.00437 0.32875,0.8567 1.00375,1.3067 1.5,1 0.49626,-0.30671 1.17126,0.14329 1.5,1 0.32875,0.8567 1.0509,1.27755 1.60479,0.93524 0.55388,-0.34232 1.00796,-0.25835 1.00906,0.18661 0.004,1.51492 7.15899,1.32701 9.83336,-0.25824 z M 752,298.62244 c 0,-0.20765 -0.7875,-0.99515 -1.75,-1.75 -1.58606,-1.24387 -1.62143,-1.2085 -0.37756,0.37756 1.30637,1.66575 2.12756,2.19548 2.12756,1.37244 z M 704.12756,273.25 c 1.24387,-1.58606 1.2085,-1.62143 -0.37756,-0.37756 -0.9625,0.75485 -1.75,1.54235 -1.75,1.75 0,0.82304 0.82119,0.29331 2.12756,-1.37244 z m -9.54499,-16.00076 c -0.27702,-0.27702 1.49066,-3.09547 3.92819,-6.26322 4.41781,-5.74128 12.98097,-12.41819 14.62402,-11.40272 0.47587,0.2941 0.86522,0.01 0.86522,-0.63127 0,-0.6413 0.62017,-0.92803 1.37814,-0.63716 0.75798,0.29086 1.84085,0.0661 2.40636,-0.49937 1.47311,-1.47311 16.47803,-1.3212 17.9655,0.18188 0.1375,0.13894 0.7,0.36512 1.25,0.50262 0.55,0.1375 1.3375,0.35954 1.75,0.49342 0.4125,0.13388 1.0875,0.19013 1.5,0.125 0.4125,-0.0651 0.75,0.25658 0.75,0.71491 0,0.45834 0.57637,0.83334 1.28082,0.83334 1.6979,0 6.71918,3.32427 6.71918,4.44834 0,0.48674 0.5671,0.88499 1.26022,0.88499 0.69312,0 2.42868,1.08346 3.8568,2.40769 2.43159,2.2547 2.6851,2.29785 3.98978,0.6791 0.76626,-0.95072 1.54178,-2.36742 1.72338,-3.14822 0.1816,-0.7808 0.68345,-1.6489 1.11522,-1.92911 0.43177,-0.2802 1.10101,-1.52196 1.48721,-2.75946 0.38619,-1.2375 1.12184,-2.25 1.63478,-2.25 0.51293,0 0.93261,-0.64286 0.93261,-1.42857 0,-0.78572 0.70714,-2.13572 1.57143,-3 0.86428,-0.86429 1.31914,-1.57143 1.01078,-1.57143 -0.80113,0 7.45034,-13.35171 8.79716,-14.23469 0.61634,-0.40408 0.77276,-0.74158 0.34758,-0.75 -0.42518,-0.008 -0.0775,-1.0769 0.77268,-2.37441 1.72588,-2.63401 0.99019,-6.04284 -1.12867,-5.22976 -0.75403,0.28935 -1.37096,0.0421 -1.37096,-0.54951 0,-0.59159 -0.675,-0.81659 -1.5,-0.5 -0.825,0.31658 -1.5,0.11317 -1.5,-0.45203 0,-0.5652 -0.41372,-0.77194 -0.91938,-0.45943 -0.50566,0.31252 -1.57709,-0.0895 -2.38095,-0.89336 -0.80387,-0.80386 -1.72955,-1.19359 -2.05708,-0.86606 -0.32753,0.32753 -0.87826,-0.14132 -1.22384,-1.04188 -0.34557,-0.90056 -1.03434,-1.38645 -1.5306,-1.07974 -0.49625,0.3067 -1.17224,-0.14589 -1.5022,-1.00575 C 762.05599,202.70352 761.18573,202 760.45203,202 c -0.7337,0 -1.65508,-0.51953 -2.04752,-1.15451 -0.47245,-0.76443 -0.23898,-0.89904 0.69098,-0.39839 0.77248,0.41587 -0.0623,-0.45059 -1.85508,-1.92547 -1.79277,-1.47487 -3.03285,-3.04845 -2.75574,-3.49683 0.27711,-0.44837 -0.19709,-1.08421 -1.0538,-1.41295 -0.8567,-0.32875 -1.27755,-1.0509 -0.93524,-1.60479 C 752.83795,191.45318 752.71271,191 752.2173,191 c -0.95167,0 -3.73314,-7.62985 -3.55044,-9.73924 0.059,-0.68158 -0.24471,-1.02166 -0.67498,-0.75574 -0.43027,0.26592 -1.024,-0.14635 -1.3194,-0.91615 -0.29541,-0.7698 -2.70506,-2.87852 -5.35479,-4.68604 -2.64973,-1.80752 -4.96862,-3.6529 -5.1531,-4.10085 -0.18448,-0.44794 -0.74698,-0.56008 -1.25,-0.24919 C 734.41157,170.86367 734,170.64148 734,170.05902 734,169.47656 733.325,169 732.5,169 c -0.825,0 -1.5,-0.47656 -1.5,-1.05902 0,-0.58246 -0.38185,-0.82302 -0.84856,-0.53458 -0.4667,0.28844 -1.79789,-0.36 -2.95818,-1.44098 C 726.03296,164.88444 724.61481,164 724.04181,164 723.46882,164 723,163.52344 723,162.94098 c 0,-0.58246 -0.42234,-0.79799 -0.93854,-0.47896 -0.5162,0.31902 -1.40251,-0.21692 -1.96959,-1.19099 -0.56708,-0.97407 -1.04474,-1.34752 -1.06146,-0.8299 -0.0167,0.51762 -0.59291,0.17486 -1.28041,-0.76168 -0.6875,-0.93655 -2.375,-1.9173 -3.75,-2.17945 -1.375,-0.26215 -2.99449,-1.1499 -3.59888,-1.97278 -0.60438,-0.82287 -1.39188,-1.20313 -1.75,-0.84501 -0.35811,0.35812 -0.65112,0.0996 -0.65112,-0.57456 0,-0.67413 -0.40285,-0.97671 -0.89522,-0.67241 -0.49236,0.3043 -1.17796,-0.18355 -1.52353,-1.08411 -0.34558,-0.90056 -0.91074,-1.35497 -1.25591,-1.0098 -0.34517,0.34517 -1.26795,-0.15292 -2.05062,-1.10687 -0.78267,-0.95395 -1.14355,-1.18077 -0.80197,-0.50405 0.37797,0.7488 -0.54071,0.56364 -2.34701,-0.47303 -1.63245,-0.9369 -2.78586,-1.99829 -2.56315,-2.35866 0.22272,-0.36037 -0.88351,-0.9129 -2.45829,-1.22786 -1.57477,-0.31495 -3.50096,-1.21037 -4.2804,-1.98982 -0.77945,-0.77945 -2.40869,-1.73187 -3.62054,-2.1165 C 684.99151,141.17992 684,140.41899 684,139.8736 c 0,-0.5454 -0.45318,-0.71155 -1.00706,-0.36923 -0.55389,0.34231 -1.27604,-0.0785 -1.60479,-0.93524 -0.32874,-0.85671 -1.00057,-1.30867 -1.49293,-1.00437 C 679.40285,137.86906 679,137.61492 679,137 c 0,-0.61492 -0.45,-0.83992 -1,-0.5 -0.55,0.33992 -1,0.11492 -1,-0.5 0,-0.61492 -0.45,-0.83992 -1,-0.5 -0.55,0.33992 -1,0.11492 -1,-0.5 0,-0.61492 -0.45,-0.83992 -1,-0.5 -0.55,0.33992 -1,0.11492 -1,-0.5 0,-0.61492 -0.45,-0.83992 -1,-0.5 -0.55,0.33992 -1,0.0665 -1,-0.60765 0,-0.67413 -0.28417,-0.94152 -0.63148,-0.5942 -0.34732,0.34732 -1.58482,0.10076 -2.75,-0.5479 -1.16519,-0.64866 -2.34352,-1.22439 -2.61852,-1.27939 -3.3293,-0.66597 -9,-2.98979 -9,-3.68816 0,-0.49541 -0.38922,-0.66019 -0.86492,-0.36618 C 654.05183,127.086 643,124.82348 643,123.93224 c 0,-0.36019 -1.11749,-0.44127 -2.48332,-0.18018 -1.36583,0.2611 -3.27833,0.16522 -4.25,-0.21306 C 633.75974,122.56304 607,122.29366 607,123.24438 c 0,0.43306 -1.2375,0.7832 -2.75,0.77808 -4.16234,-0.0141 -7.70942,0.52541 -9.09839,1.38384 -0.68606,0.42401 -1.88642,0.5257 -2.66747,0.22599 -0.78105,-0.29972 -1.70502,-0.0839 -2.05327,0.47956 -0.34824,0.56347 -1.24824,0.78847 -2,0.5 -0.75175,-0.28848 -1.62064,-0.11381 -1.93087,0.38815 -0.31023,0.50196 -1.22464,0.65916 -2.03203,0.34934 -0.80738,-0.30983 -1.46797,-0.0652 -1.46797,0.54367 0,0.60885 -0.3375,1.03555 -0.75,0.94823 -0.4125,-0.0873 -1.65,0.20887 -2.75,0.65819 -7.63929,3.12044 -11.36393,4.30331 -11.89092,3.77632 -0.33499,-0.335 -0.60908,-0.11441 -0.60908,0.4902 0,1.01115 -2.41455,2.24295 -4.28571,2.18638 -0.43215,-0.0131 -1.48093,0.67145 -2.33062,1.52115 -0.8497,0.84969 -2.02816,1.24624 -2.6188,0.8812 -0.61171,-0.37805 -0.78551,-0.1971 -0.40384,0.42046 0.39519,0.63944 -0.77203,1.60563 -2.84549,2.3554 C 552.58199,141.82972 551,142.76138 551,143.20089 551,143.6404 550.14814,144 549.10699,144 c -1.04116,0 -2.15203,0.675 -2.46862,1.5 -0.6586,1.71629 -2.22157,1.59926 21.59256,1.61689 9.20201,0.007 16.9666,0.39371 17.25465,0.85978 0.28804,0.46606 1.87163,0.63496 3.51907,0.37532 1.76825,-0.27868 2.99535,-0.03 2.99535,0.60702 0,0.65169 0.99019,0.83057 2.5,0.45163 1.50758,-0.37838 2.5,-0.19991 2.5,0.44957 0,0.59236 0.675,0.818 1.5,0.50142 0.825,-0.31659 1.5,-0.0471 1.5,0.59877 0,0.7193 0.77501,0.9284 2,0.5396 1.14731,-0.36414 2,-0.1797 2,0.43261 0,0.58707 0.3375,1.0141 0.75,0.94897 0.4125,-0.0651 1.0875,-0.009 1.5,0.125 0.4125,0.13388 1.0875,0.30488 1.5,0.37999 2.34162,0.4264 7.25,2.99484 7.25,3.79377 0,0.51573 0.45,0.65958 1,0.31966 0.55,-0.33992 1,-0.11492 1,0.5 0,0.61492 0.40285,0.86906 0.89522,0.56476 0.49236,-0.3043 1.16419,0.14766 1.49293,1.00437 0.32875,0.8567 1.05408,1.27559 1.61185,0.93087 0.55777,-0.34472 1.28409,0.0768 1.61405,0.93662 0.32996,0.85986 1.18854,1.56338 1.90795,1.56338 1.84476,0 9.57999,9.02596 8.80704,10.27661 -0.35093,0.56783 -0.18286,0.75108 0.37349,0.40724 1.16909,-0.72254 6.31889,8.23734 6.67972,11.62172 0.13364,1.25347 0.6352,2.91365 1.11458,3.6893 1.15095,1.86227 1.1242,16.19467 -0.0337,18.05256 -0.4979,0.79891 -1.04463,2.35257 -1.21496,3.45257 -0.17032,1.1 -1.19584,3.70136 -2.27893,5.78079 -2.3259,4.46553 -2.54464,7.71921 -0.51894,7.71921 0.79767,0 1.90899,0.7875 2.46959,1.75 0.56061,0.9625 1.03297,1.38186 1.04969,0.93191 0.0332,-0.89327 6.07693,3.07475 7.2651,4.76991 0.40408,0.5765 0.74158,0.7043 0.75,0.28399 0.0234,-1.16626 8.01531,4.38126 8.01531,5.56374 0,0.56858 0.26891,0.76488 0.59757,0.43621 0.52296,-0.52295 14.08146,7.53305 15.40243,9.1516 0.275,0.33695 2.66721,1.73764 5.31603,3.11264 2.64882,1.375 5.68632,3.30503 6.75,4.28896 1.06368,0.98392 1.93397,1.50889 1.93397,1.16659 0,-0.3423 1.21842,0.2652 2.70761,1.34999 1.48918,1.0848 3.30859,1.74174 4.04313,1.45987 0.73453,-0.28187 1.10886,-0.73914 0.83183,-1.01617 z M 849,210.62244 c 0,-0.20765 -0.7875,-0.99515 -1.75,-1.75 -1.58606,-1.24387 -1.62143,-1.2085 -0.37756,0.37756 1.30637,1.66575 2.12756,2.19548 2.12756,1.37244 z M 665,512.5 c 2.98742,-3.025 5.65668,-5.5 5.93168,-5.5 0.275,0 -1.94426,2.475 -4.93168,5.5 -2.98742,3.025 -5.65668,5.5 -5.93168,5.5 -0.275,0 1.94426,-2.475 4.93168,-5.5 z M 801,375.68709 c 0,-0.1721 1.4625,-1.6346 3.25,-3.25 l 3.25,-2.93709 -2.93709,3.25 C 801.82513,375.77946 801,376.45965 801,375.68709 Z M 740.40499,260.75 738.5,258.5 l 2.25,1.90499 c 1.2375,1.04774 2.25,2.06024 2.25,2.25 0,0.80025 -0.80479,0.20945 -2.59501,-1.90499 z M 540.26903,165.30701 c 0.97297,-0.25354 2.32297,-0.23687 3,0.0371 0.67703,0.27393 -0.11903,0.48137 -1.76903,0.46099 -1.65,-0.0204 -2.20394,-0.2445 -1.23097,-0.49804 z"
       id="path3" />
  </g>
  <rect
     style="fill:url(#linearGradient21);stroke:none;stroke-width:15;stroke-linecap:round;stroke-linejoin:round;stroke-dasharray:none;stroke-opacity:1;paint-order:markers fill stroke"
     id="rect11"
     width="880"
     height="880"
     x="0"
     y="0"
     ry="179.9778" />
  <g
     id="g9"
     transform="translate(-89.988892,-69.158144)"
     style="fill:#f0811e;fill-opacity:1;stroke:#1c5b48;stroke-opacity:1;paint-order:markers fill stroke">
    <path
       style="fill:#f0811e;fill-opacity:1;stroke:#1c5b48;stroke-width:15;stroke-linecap:butt;stroke-linejoin:round;stroke-dasharray:none;stroke-opacity:1;paint-order:markers fill stroke"
       d="m 634.98148,236.53602 -8.67998,-13.53027 c 0,0 6.65323,-13.91934 7.55215,-25.67132 -2.62414,-42.50338 -55.25693,-44.92047 -104.11281,-41.2959 37.29381,-53.47476 114.29811,-43.44951 137.23522,-33.31591 26.91442,11.89079 57.40376,33.4801 87.17814,51.08636 7.42769,25.14287 28.94683,30.39944 35.77807,29.89056 5.25703,-0.39162 10.54582,-3.91436 17.88812,-6.48535 16.1801,2.40703 31.29366,16.78063 39.92762,26.76775 -0.5981,10.91959 -33.03041,59.8498 -44.75697,82.46469 -8.49843,3.40705 -12.60219,3.41812 -17.17872,1.20797 -5.57118,-2.6905 -27.53951,-9.08659 -31.15522,-20.08277 -3.03355,-9.22571 0.49254,-22.26511 -4.54703,-29.81041 -9.12119,-13.65635 -30.91499,-14.29528 -40.10717,-7.20528 -8.50956,6.56348 -6.41683,21.20171 -26.32141,15.3885"
       id="path8" />
    <path
       style="fill:#f0811e;fill-opacity:1;stroke:#1c5b48;stroke-width:15;stroke-linecap:butt;stroke-linejoin:round;stroke-dasharray:none;stroke-opacity:1;paint-order:markers fill stroke"
       d="m 609.50978,279.86191 26.51324,-43.89413 48.313,29.45915 -15.19674,25.77241"
       id="path7" />
    <path
       style="fill:#f0811e;fill-opacity:1;stroke:#1c5b48;stroke-width:15.0662;stroke-linecap:butt;stroke-linejoin:round;stroke-dasharray:none;stroke-opacity:1;paint-order:markers fill stroke"
       d="m 752.54889,271.02718 38.06304,-68.70252"
       id="path9" />
  </g>
  <rect
     x="157.46268"
     y="210.79869"
     width="445.08499"
     height="445.08459"
     rx="57.481953"
     fill="var(--panel)"
     class="outline"
     id="rect13"
     style="display:inline;fill:#ffedcd;fill-opacity:1;stroke:#1c5b48;stroke-width:14.9154;stroke-linecap:butt;stroke-linejoin:round;stroke-dasharray:none;stroke-opacity:1"
     ry="57.09734" />
  <rect
     x="157.56874"
     y="705.90472"
     width="600.70874"
     height="114.87244"
     rx="3.3202522"
     fill="var(--panel)"
     class="outline"
     id="rect13-1"
     style="display:inline;fill:#73af92;fill-opacity:1;stroke:#1c5b48;stroke-width:15.1276;stroke-linecap:butt;stroke-linejoin:round;stroke-dasharray:none;stroke-opacity:1"
     ry="4.5931368" />
  <g
     id="g7"
     style="display:inline;fill:#f0811e;fill-opacity:1;stroke:none;stroke-opacity:1"
     transform="translate(-39.99506,-61.659069)">
    <rect
       x="380"
       y="-390"
       width="30"
       height="140"
       rx="8.0717516"
       id="rect14-6"
       style="display:inline;fill:#f0811e;fill-opacity:1;stroke:none;stroke-width:1.0511;stroke-opacity:1"
       ry="8.1035748"
       transform="rotate(90)" />
    <rect
       x="-335"
       y="-470.33231"
       width="30"
       height="140"
       rx="8.0717516"
       id="rect14-6-6"
       style="display:inline;fill:#f0811e;fill-opacity:1;stroke:none;stroke-width:1.0511;stroke-opacity:1"
       ry="8.1035748"
       transform="scale(-1)" />
    <rect
       x="380"
       y="-590"
       width="30"
       height="140"
       rx="8.0717516"
       id="rect14-6-2"
       style="display:inline;fill:#f0811e;fill-opacity:1;stroke:none;stroke-width:1.0511;stroke-opacity:1"
       ry="8.1035748"
       transform="rotate(90)" />
    <rect
       x="540"
       y="-590"
       width="30"
       height="140"
       rx="8.0717516"
       id="rect14-6-2-7"
       style="display:inline;fill:#f0811e;fill-opacity:1;stroke:none;stroke-width:1.0511;stroke-opacity:1"
       ry="8.1035748"
       transform="rotate(90)" />
    <rect
       x="595"
       y="-590"
       width="30"
       height="140"
       rx="8.0717516"
       id="rect14-6-2-7-2"
       style="display:inline;fill:#f0811e;fill-opacity:1;stroke:none;stroke-width:1.0511;stroke-opacity:1"
       ry="8.1035748"
       transform="rotate(90)" />
    <rect
       x="175.91884"
       y="-708.88715"
       width="30"
       height="140"
       rx="8.0717516"
       id="rect14-6-2-7-2-9"
       style="display:inline;fill:#f0811e;fill-opacity:1;stroke:none;stroke-width:1.0511;stroke-opacity:1"
       ry="8.1035748"
       transform="rotate(135)" />
    <rect
       x="-653.88715"
       y="-260.91882"
       width="30"
       height="140"
       rx="8.0717516"
       id="rect14-6-2-7-2-9-4"
       style="display:inline;fill:#f0811e;fill-opacity:1;stroke:none;stroke-width:1.0511;stroke-opacity:1"
       ry="8.1035748"
       transform="rotate(-135)" />
  </g>
  <g
     id="g11"
     style="fill:none;stroke:#1c5b48;stroke-opacity:1"
     transform="translate(-39.99506,-61.659069)">
    <path
       style="fill:none;stroke:#1c5b48;stroke-width:15;stroke-linecap:round;stroke-linejoin:round;stroke-dasharray:none;stroke-opacity:1;paint-order:stroke fill markers"
       d="m 687.5,770 v 50"
       id="path11-7-30" />
    <path
       style="fill:none;stroke:#1c5b48;stroke-width:15;stroke-linecap:round;stroke-linejoin:round;stroke-dasharray:none;stroke-opacity:1;paint-order:stroke fill markers"
       d="m 747.5,770 v 40"
       id="path11-8" />
    <path
       style="fill:none;stroke:#1c5b48;stroke-width:15;stroke-linecap:round;stroke-linejoin:round;stroke-dasharray:none;stroke-opacity:1;paint-order:stroke fill markers"
       d="m 567.5,770 v 50"
       id="path11-7-30-4" />
    <path
       style="fill:none;stroke:#1c5b48;stroke-width:15;stroke-linecap:round;stroke-linejoin:round;stroke-dasharray:none;stroke-opacity:1;paint-order:stroke fill markers"
       d="m 627.5,770 v 40"
       id="path11-8-9" />
    <path
       style="fill:none;stroke:#1c5b48;stroke-width:15;stroke-linecap:round;stroke-linejoin:round;stroke-dasharray:none;stroke-opacity:1;paint-order:stroke fill markers"
       d="m 327.5,770 v 50"
       id="path11-7-30-49" />
    <path
       style="fill:none;stroke:#1c5b48;stroke-width:15;stroke-linecap:round;stroke-linejoin:round;stroke-dasharray:none;stroke-opacity:1;paint-order:stroke fill markers"
       d="m 387.5,770 v 40"
       id="path11-8-5" />
    <path
       style="fill:none;stroke:#1c5b48;stroke-width:15;stroke-linecap:round;stroke-linejoin:round;stroke-dasharray:none;stroke-opacity:1;paint-order:stroke fill markers"
       d="m 267.5,770 v 40"
       id="path11-8-9-0" />
    <path
       style="fill:none;stroke:#1c5b48;stroke-width:15;stroke-linecap:round;stroke-linejoin:round;stroke-dasharray:none;stroke-opacity:1;paint-order:stroke fill markers"
       d="m 447.5,770 v 50"
       id="path11-7-30-4-8" />
    <path
       style="fill:none;stroke:#1c5b48;stroke-width:15;stroke-linecap:round;stroke-linejoin:round;stroke-dasharray:none;stroke-opacity:1;paint-order:stroke fill markers"
       d="m 507.5,770 v 40"
       id="path11-8-9-9" />
  </g>
  <path
     id="path10"
     style="fill:#f0811e;fill-opacity:1;stroke:#1c5b48;stroke-width:15;stroke-linecap:butt;stroke-linejoin:round;stroke-dasharray:none;stroke-opacity:1;paint-order:markers fill stroke"
     d="m 758.29967,307.25585 -365,370 h 365 z m -65,175 v 130 h -125 z" />
</svg>
